%TF.GenerationSoftware,KiCad,Pcbnew,(5.1.6-0-10_14)*%
%TF.CreationDate,2020-08-17T21:01:39+02:00*%
%TF.ProjectId,MIXER V2 PCB,4d495845-5220-4563-9220-5043422e6b69,rev?*%
%TF.SameCoordinates,Original*%
%TF.FileFunction,Copper,L1,Top*%
%TF.FilePolarity,Positive*%
%FSLAX46Y46*%
G04 Gerber Fmt 4.6, Leading zero omitted, Abs format (unit mm)*
G04 Created by KiCad (PCBNEW (5.1.6-0-10_14)) date 2020-08-17 21:01:39*
%MOMM*%
%LPD*%
G01*
G04 APERTURE LIST*
%TA.AperFunction,ComponentPad*%
%ADD10R,1.000000X1.000000*%
%TD*%
%TA.AperFunction,ComponentPad*%
%ADD11O,1.000000X1.000000*%
%TD*%
%TA.AperFunction,ComponentPad*%
%ADD12C,0.850000*%
%TD*%
%TA.AperFunction,ComponentPad*%
%ADD13O,0.850000X0.850000*%
%TD*%
%TA.AperFunction,ComponentPad*%
%ADD14R,0.850000X0.850000*%
%TD*%
%TA.AperFunction,ComponentPad*%
%ADD15O,1.400000X1.400000*%
%TD*%
%TA.AperFunction,ComponentPad*%
%ADD16C,1.400000*%
%TD*%
%TA.AperFunction,ComponentPad*%
%ADD17C,1.600000*%
%TD*%
%TA.AperFunction,ComponentPad*%
%ADD18R,1.600000X1.600000*%
%TD*%
%TA.AperFunction,ComponentPad*%
%ADD19R,1.500000X1.050000*%
%TD*%
%TA.AperFunction,ComponentPad*%
%ADD20O,1.500000X1.050000*%
%TD*%
%TA.AperFunction,ComponentPad*%
%ADD21C,2.340000*%
%TD*%
%TA.AperFunction,ComponentPad*%
%ADD22O,1.600000X1.600000*%
%TD*%
%TA.AperFunction,ComponentPad*%
%ADD23R,3.000000X1.500000*%
%TD*%
%TA.AperFunction,ComponentPad*%
%ADD24O,3.000000X1.500000*%
%TD*%
%TA.AperFunction,ViaPad*%
%ADD25C,1.000000*%
%TD*%
%TA.AperFunction,ViaPad*%
%ADD26C,0.800000*%
%TD*%
%TA.AperFunction,Conductor*%
%ADD27C,0.500000*%
%TD*%
%TA.AperFunction,Conductor*%
%ADD28C,0.250000*%
%TD*%
G04 APERTURE END LIST*
D10*
%TO.P,SW3,1*%
%TO.N,Net-(R54-Pad1)*%
X232000000Y-50300000D03*
D11*
%TO.P,SW3,2*%
%TO.N,Net-(J4-Pad2)*%
X233270000Y-50300000D03*
%TO.P,SW3,3*%
%TO.N,Net-(R53-Pad1)*%
X232000000Y-49030000D03*
%TO.P,SW3,4*%
%TO.N,Net-(J4-Pad1)*%
X233270000Y-49030000D03*
%TO.P,SW3,5*%
%TO.N,N/C*%
X232000000Y-47760000D03*
%TO.P,SW3,6*%
X233270000Y-47760000D03*
%TD*%
D12*
%TO.P,J1,1*%
%TO.N,Net-(C24-Pad2)*%
X101873000Y-59500000D03*
D13*
%TO.P,J1,2*%
%TO.N,Net-(C23-Pad2)*%
X103000000Y-59500000D03*
D14*
%TO.P,J1,3*%
%TO.N,GND*%
X104159000Y-59500000D03*
%TD*%
D13*
%TO.P,SW2,3*%
%TO.N,Net-(C30-Pad1)*%
X147500000Y-36841000D03*
%TO.P,SW2,2*%
%TO.N,Net-(C32-Pad2)*%
X147500000Y-38000000D03*
D14*
%TO.P,SW2,1*%
%TO.N,Net-(RV3-Pad4)*%
X147500000Y-39127000D03*
%TD*%
%TO.P,SW1,1*%
%TO.N,Net-(RV3-Pad1)*%
X151000000Y-75127000D03*
D13*
%TO.P,SW1,2*%
%TO.N,Net-(C31-Pad2)*%
X151000000Y-74000000D03*
%TO.P,SW1,3*%
%TO.N,Net-(C29-Pad1)*%
X151000000Y-72841000D03*
%TD*%
D14*
%TO.P,J2,3*%
%TO.N,GND*%
X237000000Y-55659000D03*
D13*
%TO.P,J2,2*%
%TO.N,Net-(J2-Pad2)*%
X237000000Y-54500000D03*
D12*
%TO.P,J2,1*%
%TO.N,Net-(J2-Pad1)*%
X237000000Y-53373000D03*
%TD*%
%TO.P,J4,1*%
%TO.N,Net-(J4-Pad1)*%
X236900000Y-48173000D03*
D13*
%TO.P,J4,2*%
%TO.N,Net-(J4-Pad2)*%
X236900000Y-49300000D03*
D14*
%TO.P,J4,3*%
%TO.N,GND*%
X236900000Y-50459000D03*
%TD*%
D15*
%TO.P,R43,2*%
%TO.N,Net-(C21-Pad2)*%
X222420000Y-49000000D03*
D16*
%TO.P,R43,1*%
%TO.N,Net-(J2-Pad1)*%
X227500000Y-49000000D03*
%TD*%
D17*
%TO.P,C1,1*%
%TO.N,Net-(C1-Pad1)*%
X143500000Y-52500000D03*
%TO.P,C1,2*%
%TO.N,Net-(C1-Pad2)*%
X141000000Y-52500000D03*
%TD*%
%TO.P,C2,2*%
%TO.N,Net-(C2-Pad2)*%
X144000000Y-66000000D03*
%TO.P,C2,1*%
%TO.N,Net-(C2-Pad1)*%
X144000000Y-68500000D03*
%TD*%
%TO.P,C3,2*%
%TO.N,GND*%
X181000000Y-57000000D03*
D18*
%TO.P,C3,1*%
%TO.N,Net-(C3-Pad1)*%
X181000000Y-54500000D03*
%TD*%
D17*
%TO.P,C4,2*%
%TO.N,Net-(C4-Pad2)*%
X188200000Y-54500000D03*
D18*
%TO.P,C4,1*%
%TO.N,Net-(C4-Pad1)*%
X188200000Y-57000000D03*
%TD*%
D17*
%TO.P,C5,2*%
%TO.N,GND*%
X185000000Y-63500000D03*
D18*
%TO.P,C5,1*%
%TO.N,Net-(C5-Pad1)*%
X182500000Y-63500000D03*
%TD*%
D17*
%TO.P,C6,2*%
%TO.N,Net-(C6-Pad2)*%
X160500000Y-62000000D03*
D18*
%TO.P,C6,1*%
%TO.N,Net-(C6-Pad1)*%
X163000000Y-62000000D03*
%TD*%
D17*
%TO.P,C7,1*%
%TO.N,Net-(C7-Pad1)*%
X181500000Y-37000000D03*
%TO.P,C7,2*%
%TO.N,Net-(C11-Pad2)*%
X181500000Y-39500000D03*
%TD*%
%TO.P,C8,1*%
%TO.N,Net-(C8-Pad1)*%
X167334999Y-48400000D03*
%TO.P,C8,2*%
%TO.N,Net-(C12-Pad2)*%
X167334999Y-50900000D03*
%TD*%
%TO.P,C9,1*%
%TO.N,Net-(C9-Pad1)*%
X189000000Y-50500000D03*
%TO.P,C9,2*%
%TO.N,Net-(C9-Pad2)*%
X189000000Y-48000000D03*
%TD*%
%TO.P,C10,1*%
%TO.N,Net-(C10-Pad1)*%
X196000000Y-48000000D03*
%TO.P,C10,2*%
%TO.N,Net-(C10-Pad2)*%
X198500000Y-48000000D03*
%TD*%
%TO.P,C11,2*%
%TO.N,Net-(C11-Pad2)*%
X181500000Y-42000000D03*
%TO.P,C11,1*%
%TO.N,Net-(C11-Pad1)*%
X181500000Y-44500000D03*
%TD*%
%TO.P,C12,2*%
%TO.N,Net-(C12-Pad2)*%
X169950000Y-50850000D03*
%TO.P,C12,1*%
%TO.N,Net-(C12-Pad1)*%
X169950000Y-48350000D03*
%TD*%
D18*
%TO.P,C15,1*%
%TO.N,Net-(C15-Pad1)*%
X217200000Y-71800000D03*
D17*
%TO.P,C15,2*%
%TO.N,Net-(C15-Pad2)*%
X219700000Y-71800000D03*
%TD*%
%TO.P,C16,2*%
%TO.N,Net-(C16-Pad2)*%
X202000000Y-53500000D03*
D18*
%TO.P,C16,1*%
%TO.N,Net-(C16-Pad1)*%
X202000000Y-56000000D03*
%TD*%
%TO.P,C17,1*%
%TO.N,Net-(C17-Pad1)*%
X208000000Y-39800000D03*
D17*
%TO.P,C17,2*%
%TO.N,Net-(C17-Pad2)*%
X208000000Y-37300000D03*
%TD*%
D18*
%TO.P,C18,1*%
%TO.N,Net-(C18-Pad1)*%
X208000000Y-47000000D03*
D17*
%TO.P,C18,2*%
%TO.N,Net-(C18-Pad2)*%
X208000000Y-44500000D03*
%TD*%
D18*
%TO.P,C21,1*%
%TO.N,Net-(C17-Pad1)*%
X187000000Y-73500000D03*
D17*
%TO.P,C21,2*%
%TO.N,Net-(C21-Pad2)*%
X187000000Y-71000000D03*
%TD*%
D18*
%TO.P,C22,1*%
%TO.N,Net-(C18-Pad1)*%
X192400000Y-63600000D03*
D17*
%TO.P,C22,2*%
%TO.N,Net-(C22-Pad2)*%
X194900000Y-63600000D03*
%TD*%
D18*
%TO.P,C23,1*%
%TO.N,Net-(C23-Pad1)*%
X124000000Y-75000000D03*
D17*
%TO.P,C23,2*%
%TO.N,Net-(C23-Pad2)*%
X121500000Y-75000000D03*
%TD*%
%TO.P,C24,2*%
%TO.N,Net-(C24-Pad2)*%
X104000000Y-38500000D03*
D18*
%TO.P,C24,1*%
%TO.N,Net-(C24-Pad1)*%
X106500000Y-38500000D03*
%TD*%
%TO.P,C25,1*%
%TO.N,Net-(C25-Pad1)*%
X112500000Y-73500000D03*
D17*
%TO.P,C25,2*%
%TO.N,GND*%
X112500000Y-71000000D03*
%TD*%
%TO.P,C26,2*%
%TO.N,GND*%
X112000000Y-47100000D03*
D18*
%TO.P,C26,1*%
%TO.N,Net-(C26-Pad1)*%
X112000000Y-44600000D03*
%TD*%
D17*
%TO.P,C27,2*%
%TO.N,Net-(C27-Pad2)*%
X137650000Y-68700000D03*
%TO.P,C27,1*%
%TO.N,Net-(C27-Pad1)*%
X137650000Y-71200000D03*
%TD*%
%TO.P,C28,1*%
%TO.N,Net-(C28-Pad1)*%
X151850000Y-45900000D03*
%TO.P,C28,2*%
%TO.N,Net-(C28-Pad2)*%
X149350000Y-45900000D03*
%TD*%
%TO.P,C29,1*%
%TO.N,Net-(C29-Pad1)*%
X137650000Y-73700000D03*
%TO.P,C29,2*%
%TO.N,Net-(C27-Pad1)*%
X137650000Y-76200000D03*
%TD*%
%TO.P,C30,2*%
%TO.N,Net-(C28-Pad1)*%
X157350000Y-43400000D03*
%TO.P,C30,1*%
%TO.N,Net-(C30-Pad1)*%
X157350000Y-40900000D03*
%TD*%
%TO.P,C31,2*%
%TO.N,Net-(C31-Pad2)*%
X142500000Y-38500000D03*
D18*
%TO.P,C31,1*%
%TO.N,Net-(C31-Pad1)*%
X140000000Y-38500000D03*
%TD*%
%TO.P,C32,1*%
%TO.N,Net-(C32-Pad1)*%
X141000000Y-45000000D03*
D17*
%TO.P,C32,2*%
%TO.N,Net-(C32-Pad2)*%
X141000000Y-47500000D03*
%TD*%
D19*
%TO.P,Q1,1*%
%TO.N,Net-(Q1-Pad1)*%
X158000000Y-54000000D03*
D20*
%TO.P,Q1,3*%
%TO.N,Net-(C3-Pad1)*%
X158000000Y-56540000D03*
%TO.P,Q1,2*%
%TO.N,Net-(C1-Pad1)*%
X158000000Y-55270000D03*
%TD*%
%TO.P,Q2,2*%
%TO.N,Net-(C2-Pad1)*%
X163000000Y-68730000D03*
%TO.P,Q2,3*%
%TO.N,Net-(C5-Pad1)*%
X163000000Y-67460000D03*
D19*
%TO.P,Q2,1*%
%TO.N,Net-(Q2-Pad1)*%
X163000000Y-70000000D03*
%TD*%
D20*
%TO.P,Q3,2*%
%TO.N,Net-(Q1-Pad1)*%
X168500000Y-55270000D03*
%TO.P,Q3,3*%
%TO.N,Net-(C3-Pad1)*%
X168500000Y-56540000D03*
D19*
%TO.P,Q3,1*%
%TO.N,Net-(C4-Pad1)*%
X168500000Y-54000000D03*
%TD*%
%TO.P,Q4,1*%
%TO.N,Net-(C6-Pad1)*%
X171500000Y-70000000D03*
D20*
%TO.P,Q4,3*%
%TO.N,Net-(C5-Pad1)*%
X171500000Y-67460000D03*
%TO.P,Q4,2*%
%TO.N,Net-(Q2-Pad1)*%
X171500000Y-68730000D03*
%TD*%
D19*
%TO.P,Q5,1*%
%TO.N,Net-(Q5-Pad1)*%
X216000000Y-52000000D03*
D20*
%TO.P,Q5,3*%
%TO.N,Net-(C17-Pad1)*%
X216000000Y-49460000D03*
%TO.P,Q5,2*%
%TO.N,Net-(C15-Pad1)*%
X216000000Y-50730000D03*
%TD*%
%TO.P,Q6,2*%
%TO.N,Net-(C16-Pad1)*%
X208800000Y-52330000D03*
%TO.P,Q6,3*%
%TO.N,Net-(C18-Pad1)*%
X208800000Y-51060000D03*
D19*
%TO.P,Q6,1*%
%TO.N,Net-(Q6-Pad1)*%
X208800000Y-53600000D03*
%TD*%
D16*
%TO.P,R1,1*%
%TO.N,Net-(C3-Pad1)*%
X152000000Y-57000000D03*
D15*
%TO.P,R1,2*%
%TO.N,+15V*%
X146920000Y-57000000D03*
%TD*%
%TO.P,R2,2*%
%TO.N,Net-(C3-Pad1)*%
X152080000Y-53000000D03*
D16*
%TO.P,R2,1*%
%TO.N,Net-(C1-Pad1)*%
X147000000Y-53000000D03*
%TD*%
%TO.P,R3,1*%
%TO.N,GND*%
X162500000Y-57000000D03*
D15*
%TO.P,R3,2*%
%TO.N,Net-(C1-Pad1)*%
X162500000Y-51920000D03*
%TD*%
D16*
%TO.P,R4,1*%
%TO.N,Net-(C2-Pad1)*%
X147000000Y-65500000D03*
D15*
%TO.P,R4,2*%
%TO.N,Net-(C5-Pad1)*%
X152080000Y-65500000D03*
%TD*%
D16*
%TO.P,R5,1*%
%TO.N,GND*%
X166500000Y-63500000D03*
D15*
%TO.P,R5,2*%
%TO.N,Net-(C2-Pad1)*%
X166500000Y-68580000D03*
%TD*%
%TO.P,R6,2*%
%TO.N,Net-(C5-Pad1)*%
X152080000Y-61500000D03*
D16*
%TO.P,R6,1*%
%TO.N,+15V*%
X147000000Y-61500000D03*
%TD*%
D15*
%TO.P,R7,2*%
%TO.N,Net-(Q1-Pad1)*%
X176500000Y-52920000D03*
D16*
%TO.P,R7,1*%
%TO.N,GND*%
X176500000Y-58000000D03*
%TD*%
D15*
%TO.P,R8,2*%
%TO.N,Net-(Q2-Pad1)*%
X158280000Y-68400000D03*
D16*
%TO.P,R8,1*%
%TO.N,GND*%
X153200000Y-68400000D03*
%TD*%
%TO.P,R9,1*%
%TO.N,Net-(C4-Pad1)*%
X174000000Y-53000000D03*
D15*
%TO.P,R9,2*%
%TO.N,GND*%
X174000000Y-58080000D03*
%TD*%
D16*
%TO.P,R10,1*%
%TO.N,Net-(C6-Pad1)*%
X175500000Y-70000000D03*
D15*
%TO.P,R10,2*%
%TO.N,GND*%
X175500000Y-64920000D03*
%TD*%
%TO.P,R11,2*%
%TO.N,Net-(C4-Pad2)*%
X184200000Y-41880000D03*
D16*
%TO.P,R11,1*%
%TO.N,Net-(C7-Pad1)*%
X184200000Y-36800000D03*
%TD*%
D15*
%TO.P,R12,2*%
%TO.N,Net-(C6-Pad2)*%
X164800000Y-57080000D03*
D16*
%TO.P,R12,1*%
%TO.N,Net-(C8-Pad1)*%
X164800000Y-52000000D03*
%TD*%
D15*
%TO.P,R13,2*%
%TO.N,Net-(C11-Pad2)*%
X181420000Y-50500000D03*
D16*
%TO.P,R13,1*%
%TO.N,Net-(C9-Pad1)*%
X186500000Y-50500000D03*
%TD*%
%TO.P,R14,1*%
%TO.N,Net-(C10-Pad1)*%
X196000000Y-50800000D03*
D15*
%TO.P,R14,2*%
%TO.N,Net-(C12-Pad2)*%
X196000000Y-55880000D03*
%TD*%
D16*
%TO.P,R15,1*%
%TO.N,Net-(C9-Pad1)*%
X204000000Y-59600000D03*
D15*
%TO.P,R15,2*%
%TO.N,Net-(C15-Pad2)*%
X204000000Y-64680000D03*
%TD*%
D16*
%TO.P,R16,1*%
%TO.N,Net-(C10-Pad1)*%
X193400000Y-50800000D03*
D15*
%TO.P,R16,2*%
%TO.N,Net-(C16-Pad2)*%
X193400000Y-55880000D03*
%TD*%
D16*
%TO.P,R17,1*%
%TO.N,Net-(C17-Pad2)*%
X186500000Y-48000000D03*
D15*
%TO.P,R17,2*%
%TO.N,Net-(C11-Pad1)*%
X181420000Y-48000000D03*
%TD*%
D16*
%TO.P,R18,1*%
%TO.N,Net-(C18-Pad2)*%
X177450000Y-48350000D03*
D15*
%TO.P,R18,2*%
%TO.N,Net-(C12-Pad1)*%
X172370000Y-48350000D03*
%TD*%
%TO.P,R19,2*%
%TO.N,Net-(C15-Pad1)*%
X217080000Y-58500000D03*
D16*
%TO.P,R19,1*%
%TO.N,Net-(C3-Pad1)*%
X212000000Y-58500000D03*
%TD*%
D15*
%TO.P,R20,2*%
%TO.N,GND*%
X215000000Y-67080000D03*
D16*
%TO.P,R20,1*%
%TO.N,Net-(C15-Pad1)*%
X215000000Y-62000000D03*
%TD*%
%TO.P,R21,1*%
%TO.N,Net-(C5-Pad1)*%
X174000000Y-75400000D03*
D15*
%TO.P,R21,2*%
%TO.N,Net-(C16-Pad1)*%
X179080000Y-75400000D03*
%TD*%
D16*
%TO.P,R22,1*%
%TO.N,Net-(C16-Pad1)*%
X182000000Y-74500000D03*
D15*
%TO.P,R22,2*%
%TO.N,GND*%
X182000000Y-69420000D03*
%TD*%
%TO.P,R23,2*%
%TO.N,Net-(C17-Pad1)*%
X217080000Y-55500000D03*
D16*
%TO.P,R23,1*%
%TO.N,Net-(C3-Pad1)*%
X212000000Y-55500000D03*
%TD*%
%TO.P,R24,1*%
%TO.N,Net-(Q5-Pad1)*%
X220000000Y-56400000D03*
D15*
%TO.P,R24,2*%
%TO.N,GND*%
X220000000Y-61480000D03*
%TD*%
%TO.P,R25,2*%
%TO.N,Net-(C18-Pad1)*%
X179080000Y-72800000D03*
D16*
%TO.P,R25,1*%
%TO.N,Net-(C5-Pad1)*%
X174000000Y-72800000D03*
%TD*%
D15*
%TO.P,R26,2*%
%TO.N,GND*%
X227580000Y-62000000D03*
D16*
%TO.P,R26,1*%
%TO.N,Net-(Q6-Pad1)*%
X222500000Y-62000000D03*
%TD*%
D15*
%TO.P,R27,2*%
%TO.N,GND*%
X178500000Y-61920000D03*
D16*
%TO.P,R27,1*%
%TO.N,Net-(C21-Pad2)*%
X178500000Y-67000000D03*
%TD*%
D15*
%TO.P,R28,2*%
%TO.N,GND*%
X227580000Y-59000000D03*
D16*
%TO.P,R28,1*%
%TO.N,Net-(C22-Pad2)*%
X222500000Y-59000000D03*
%TD*%
D15*
%TO.P,R31,2*%
%TO.N,GND*%
X104000000Y-69920000D03*
D16*
%TO.P,R31,1*%
%TO.N,Net-(C23-Pad2)*%
X104000000Y-75000000D03*
%TD*%
D15*
%TO.P,R32,2*%
%TO.N,GND*%
X104000000Y-48580000D03*
D16*
%TO.P,R32,1*%
%TO.N,Net-(C24-Pad2)*%
X104000000Y-43500000D03*
%TD*%
%TO.P,R33,1*%
%TO.N,Net-(C23-Pad1)*%
X107000000Y-75000000D03*
D15*
%TO.P,R33,2*%
%TO.N,GND*%
X107000000Y-69920000D03*
%TD*%
D16*
%TO.P,R34,1*%
%TO.N,Net-(C24-Pad1)*%
X107000000Y-43500000D03*
D15*
%TO.P,R34,2*%
%TO.N,GND*%
X107000000Y-48580000D03*
%TD*%
%TO.P,R35,2*%
%TO.N,Net-(C25-Pad1)*%
X117920000Y-70000000D03*
D16*
%TO.P,R35,1*%
%TO.N,Net-(C27-Pad2)*%
X123000000Y-70000000D03*
%TD*%
D15*
%TO.P,R36,2*%
%TO.N,Net-(C26-Pad1)*%
X117920000Y-48500000D03*
D16*
%TO.P,R36,1*%
%TO.N,Net-(C28-Pad2)*%
X123000000Y-48500000D03*
%TD*%
%TO.P,R37,1*%
%TO.N,Net-(C27-Pad1)*%
X134600000Y-76190000D03*
D15*
%TO.P,R37,2*%
%TO.N,Net-(C27-Pad2)*%
X134600000Y-71110000D03*
%TD*%
D16*
%TO.P,R38,1*%
%TO.N,Net-(R38-Pad1)*%
X132150000Y-76200000D03*
D15*
%TO.P,R38,2*%
%TO.N,Net-(C27-Pad2)*%
X132150000Y-71120000D03*
%TD*%
D16*
%TO.P,R39,1*%
%TO.N,Net-(C28-Pad2)*%
X151850000Y-38400000D03*
D15*
%TO.P,R39,2*%
%TO.N,Net-(C28-Pad1)*%
X151850000Y-43480000D03*
%TD*%
D16*
%TO.P,R40,1*%
%TO.N,Net-(C28-Pad2)*%
X144500000Y-50000000D03*
D15*
%TO.P,R40,2*%
%TO.N,Net-(R40-Pad2)*%
X149580000Y-50000000D03*
%TD*%
%TO.P,R41,2*%
%TO.N,Net-(C27-Pad1)*%
X139920000Y-76200000D03*
D16*
%TO.P,R41,1*%
%TO.N,Net-(C29-Pad1)*%
X145000000Y-76200000D03*
%TD*%
D15*
%TO.P,R42,2*%
%TO.N,Net-(C30-Pad1)*%
X154675001Y-38344999D03*
D16*
%TO.P,R42,1*%
%TO.N,Net-(C28-Pad1)*%
X154675001Y-43424999D03*
%TD*%
%TO.P,R44,1*%
%TO.N,Net-(J2-Pad2)*%
X227500000Y-54000000D03*
D15*
%TO.P,R44,2*%
%TO.N,Net-(C22-Pad2)*%
X222420000Y-54000000D03*
%TD*%
D21*
%TO.P,RV1,4*%
%TO.N,Net-(C12-Pad1)*%
X174000000Y-43000000D03*
%TO.P,RV1,5*%
%TO.N,Net-(C12-Pad2)*%
X169000000Y-43000000D03*
%TO.P,RV1,6*%
%TO.N,Net-(C8-Pad1)*%
X164000000Y-43000000D03*
%TO.P,RV1,1*%
%TO.N,Net-(C11-Pad1)*%
X174000000Y-38000000D03*
%TO.P,RV1,2*%
%TO.N,Net-(C11-Pad2)*%
X169000000Y-38000000D03*
%TO.P,RV1,3*%
%TO.N,Net-(C7-Pad1)*%
X164000000Y-38000000D03*
%TD*%
%TO.P,RV2,3*%
%TO.N,Net-(C17-Pad2)*%
X190000000Y-38000000D03*
%TO.P,RV2,2*%
%TO.N,Net-(C9-Pad2)*%
X195000000Y-38000000D03*
%TO.P,RV2,1*%
%TO.N,Net-(C4-Pad2)*%
X200000000Y-38000000D03*
%TO.P,RV2,6*%
%TO.N,Net-(C18-Pad2)*%
X190000000Y-43000000D03*
%TO.P,RV2,5*%
%TO.N,Net-(C10-Pad2)*%
X195000000Y-43000000D03*
%TO.P,RV2,4*%
%TO.N,Net-(C6-Pad2)*%
X200000000Y-43000000D03*
%TD*%
%TO.P,RV3,4*%
%TO.N,Net-(RV3-Pad4)*%
X226000000Y-42800000D03*
%TO.P,RV3,5*%
X221000000Y-42800000D03*
%TO.P,RV3,6*%
%TO.N,Net-(R40-Pad2)*%
X216000000Y-42800000D03*
%TO.P,RV3,1*%
%TO.N,Net-(RV3-Pad1)*%
X226000000Y-37800000D03*
%TO.P,RV3,2*%
X221000000Y-37800000D03*
%TO.P,RV3,3*%
%TO.N,Net-(R38-Pad1)*%
X216000000Y-37800000D03*
%TD*%
%TO.P,RV4,3*%
%TO.N,GND*%
X120000000Y-38000000D03*
%TO.P,RV4,2*%
%TO.N,Net-(C1-Pad2)*%
X125000000Y-38000000D03*
%TO.P,RV4,1*%
%TO.N,Net-(C31-Pad1)*%
X130000000Y-38000000D03*
%TO.P,RV4,6*%
%TO.N,GND*%
X120000000Y-43000000D03*
%TO.P,RV4,5*%
%TO.N,Net-(C2-Pad2)*%
X125000000Y-43000000D03*
%TO.P,RV4,4*%
%TO.N,Net-(C32-Pad1)*%
X130000000Y-43000000D03*
%TD*%
D18*
%TO.P,U1,1*%
%TO.N,Net-(C31-Pad2)*%
X134500000Y-63000000D03*
D22*
%TO.P,U1,5*%
%TO.N,Net-(C24-Pad1)*%
X142120000Y-55380000D03*
%TO.P,U1,2*%
%TO.N,Net-(C27-Pad2)*%
X137040000Y-63000000D03*
%TO.P,U1,6*%
%TO.N,Net-(C28-Pad2)*%
X139580000Y-55380000D03*
%TO.P,U1,3*%
%TO.N,Net-(C23-Pad1)*%
X139580000Y-63000000D03*
%TO.P,U1,7*%
%TO.N,Net-(C32-Pad2)*%
X137040000Y-55380000D03*
%TO.P,U1,4*%
%TO.N,-15V*%
X142120000Y-63000000D03*
%TO.P,U1,8*%
%TO.N,+15V*%
X134500000Y-55380000D03*
%TD*%
D23*
%TO.P,J3,1*%
%TO.N,GND*%
X115000000Y-54000000D03*
X110000000Y-54000000D03*
D24*
%TO.P,J3,2*%
%TO.N,+15V*%
X115000000Y-59000000D03*
X110000000Y-59000000D03*
%TO.P,J3,3*%
%TO.N,-15V*%
X115000000Y-64000000D03*
X110000000Y-64000000D03*
%TD*%
D16*
%TO.P,R53,1*%
%TO.N,Net-(R53-Pad1)*%
X227500000Y-51500000D03*
D15*
%TO.P,R53,2*%
%TO.N,Net-(C21-Pad2)*%
X222420000Y-51500000D03*
%TD*%
%TO.P,R54,2*%
%TO.N,Net-(C22-Pad2)*%
X222420000Y-56500000D03*
D16*
%TO.P,R54,1*%
%TO.N,Net-(R54-Pad1)*%
X227500000Y-56500000D03*
%TD*%
D25*
%TO.N,GND*%
X148200000Y-59500000D03*
X156000000Y-59500000D03*
X212000000Y-61500000D03*
X220099991Y-65034496D03*
D26*
%TO.N,Net-(C6-Pad2)*%
X200000000Y-50500000D03*
%TO.N,Net-(C15-Pad2)*%
X212200000Y-74200000D03*
%TO.N,Net-(C16-Pad1)*%
X203959329Y-72774990D03*
%TO.N,Net-(C18-Pad1)*%
X199000000Y-58400000D03*
%TO.N,Net-(R38-Pad1)*%
X213165900Y-79049989D03*
%TO.N,Net-(RV3-Pad1)*%
X218504999Y-78495001D03*
%TD*%
D27*
%TO.N,GND*%
X110000000Y-54000000D02*
X115000000Y-54000000D01*
X107000000Y-67000000D02*
X107000000Y-69920000D01*
X107000000Y-51000000D02*
X110000000Y-54000000D01*
X107000000Y-48580000D02*
X107000000Y-51000000D01*
X120000000Y-38000000D02*
X120000000Y-43000000D01*
X157000000Y-64600000D02*
X157000000Y-59500000D01*
X153200000Y-68400000D02*
X157000000Y-64600000D01*
X156000000Y-59500000D02*
X157000000Y-59500000D01*
X162500000Y-57000000D02*
X162500000Y-59500000D01*
X162500000Y-59500000D02*
X166500000Y-59500000D01*
X157000000Y-59500000D02*
X162500000Y-59500000D01*
X166500000Y-63500000D02*
X166500000Y-59500000D01*
X175500000Y-64920000D02*
X175500000Y-59500000D01*
X175500000Y-59500000D02*
X173500000Y-59500000D01*
X173500000Y-58080000D02*
X173500000Y-59500000D01*
X173500000Y-59500000D02*
X166500000Y-59500000D01*
X176500000Y-58000000D02*
X176500000Y-59500000D01*
X176500000Y-59500000D02*
X178500000Y-59500000D01*
X175500000Y-59500000D02*
X176500000Y-59500000D01*
X181000000Y-57000000D02*
X181000000Y-59500000D01*
X178500000Y-59500000D02*
X181000000Y-59500000D01*
X227580000Y-62000000D02*
X227580000Y-59000000D01*
X182000000Y-66500000D02*
X185000000Y-63500000D01*
X182000000Y-69420000D02*
X182000000Y-66500000D01*
X185000000Y-63500000D02*
X185000000Y-59500000D01*
X181000000Y-59500000D02*
X185000000Y-59500000D01*
X178500000Y-61920000D02*
X178500000Y-59500000D01*
X224545504Y-65034496D02*
X220099991Y-65034496D01*
X227580000Y-62000000D02*
X224545504Y-65034496D01*
X185000000Y-59500000D02*
X196745391Y-59500000D01*
X196745391Y-59500000D02*
X198745391Y-61500000D01*
X198745391Y-61500000D02*
X212000000Y-61500000D01*
X116100000Y-43000000D02*
X112000000Y-47100000D01*
X120000000Y-43000000D02*
X116100000Y-43000000D01*
X110520000Y-48580000D02*
X112000000Y-47100000D01*
X107000000Y-48580000D02*
X110520000Y-48580000D01*
X237000000Y-55659000D02*
X233141000Y-55659000D01*
X229800000Y-59000000D02*
X227580000Y-59000000D01*
X233141000Y-55659000D02*
X229800000Y-59000000D01*
X236900000Y-50459000D02*
X237459000Y-50459000D01*
X237459000Y-50459000D02*
X238800000Y-51800000D01*
X238800000Y-54784000D02*
X237925000Y-55659000D01*
X237925000Y-55659000D02*
X237000000Y-55659000D01*
X238800000Y-51800000D02*
X238800000Y-54784000D01*
X104159000Y-59659000D02*
X104159000Y-59500000D01*
X105900000Y-61400000D02*
X104159000Y-59659000D01*
X105900000Y-58100000D02*
X105900000Y-61400000D01*
X110000000Y-54000000D02*
X105900000Y-58100000D01*
X105900000Y-65900000D02*
X107000000Y-67000000D01*
X105900000Y-61400000D02*
X105900000Y-65900000D01*
X118400000Y-61400000D02*
X105900000Y-61400000D01*
X120300000Y-59500000D02*
X118400000Y-61400000D01*
X148200000Y-59500000D02*
X120300000Y-59500000D01*
D28*
%TO.N,Net-(C6-Pad2)*%
X179200000Y-52000000D02*
X198500000Y-52000000D01*
X178800000Y-51600000D02*
X179200000Y-52000000D01*
X172400000Y-51600000D02*
X178800000Y-51600000D01*
X164800000Y-55839998D02*
X168139998Y-52500000D01*
X168139998Y-52500000D02*
X171500000Y-52500000D01*
X171500000Y-52500000D02*
X172400000Y-51600000D01*
X198500000Y-52000000D02*
X200000000Y-50500000D01*
X164800000Y-57080000D02*
X164800000Y-55839998D01*
%TO.N,Net-(C6-Pad1)*%
X171000000Y-70000000D02*
X171500000Y-70000000D01*
X163000000Y-62000000D02*
X171000000Y-70000000D01*
X175500000Y-70000000D02*
X171500000Y-70000000D01*
%TO.N,Net-(C9-Pad1)*%
X186500000Y-50500000D02*
X189000000Y-50500000D01*
X192182998Y-50500000D02*
X189000000Y-50500000D01*
X192907999Y-49774999D02*
X192182998Y-50500000D01*
X200974999Y-49774999D02*
X192907999Y-49774999D01*
X201600000Y-50400000D02*
X200974999Y-49774999D01*
X201600000Y-50800000D02*
X201600000Y-50400000D01*
X197800000Y-54600000D02*
X201600000Y-50800000D01*
X197800000Y-59400000D02*
X197800000Y-54600000D01*
X198000000Y-59600000D02*
X197800000Y-59400000D01*
X204000000Y-59600000D02*
X198000000Y-59600000D01*
%TO.N,Net-(C9-Pad2)*%
X195000000Y-38000000D02*
X192000000Y-41000000D01*
X192000000Y-44500000D02*
X192000000Y-41000000D01*
X191000000Y-45500000D02*
X192000000Y-44500000D01*
X191000000Y-45500000D02*
X189900000Y-45500000D01*
X189000000Y-46400000D02*
X189000000Y-48000000D01*
X189900000Y-45500000D02*
X189000000Y-46400000D01*
%TO.N,Net-(C15-Pad1)*%
X217200000Y-64200000D02*
X217200000Y-71800000D01*
X215000000Y-62000000D02*
X217200000Y-64200000D01*
X214924999Y-56344999D02*
X217080000Y-58500000D01*
X216000000Y-50730000D02*
X215000000Y-50730000D01*
X214924999Y-56344999D02*
X214924999Y-56324999D01*
X214924999Y-56324999D02*
X213800000Y-55200000D01*
X213800000Y-51930000D02*
X215000000Y-50730000D01*
X213800000Y-55200000D02*
X213800000Y-51930000D01*
%TO.N,Net-(C15-Pad2)*%
X204000000Y-64680000D02*
X204000000Y-66000000D01*
X204000000Y-66000000D02*
X212200000Y-74200000D01*
%TO.N,Net-(C16-Pad1)*%
X182000000Y-74500000D02*
X182699999Y-75199999D01*
X201534320Y-75199999D02*
X203959329Y-72774990D01*
X182699999Y-75199999D02*
X201534320Y-75199999D01*
X205670000Y-52330000D02*
X202000000Y-56000000D01*
X208800000Y-52330000D02*
X205670000Y-52330000D01*
%TO.N,Net-(C17-Pad1)*%
X218000000Y-50000000D02*
X218000000Y-54580000D01*
X217460000Y-49460000D02*
X218000000Y-50000000D01*
X218000000Y-54580000D02*
X217080000Y-55500000D01*
X216000000Y-49460000D02*
X217460000Y-49460000D01*
%TO.N,Net-(C18-Pad1)*%
X192400000Y-63600000D02*
X189485002Y-63600000D01*
X180285002Y-72800000D02*
X179080000Y-72800000D01*
X189485002Y-63600000D02*
X180285002Y-72800000D01*
X199000000Y-56814998D02*
X199000000Y-58400000D01*
X199000000Y-54600000D02*
X199000000Y-56814998D01*
X202540000Y-51060000D02*
X199000000Y-54600000D01*
X208800000Y-51060000D02*
X202540000Y-51060000D01*
%TO.N,Net-(C18-Pad2)*%
X190000000Y-43000000D02*
X187000000Y-43000000D01*
X187000000Y-43000000D02*
X184000000Y-46000000D01*
X179800000Y-46000000D02*
X177450000Y-48350000D01*
X184000000Y-46000000D02*
X179800000Y-46000000D01*
%TO.N,Net-(C22-Pad2)*%
X219600000Y-64000000D02*
X218974999Y-64625001D01*
X220825001Y-77425001D02*
X220800000Y-77400000D01*
X200900000Y-69600000D02*
X194900000Y-63600000D01*
X222500000Y-59000000D02*
X221474999Y-60025001D01*
X205400000Y-69600000D02*
X200900000Y-69600000D01*
X221474999Y-60025001D02*
X221474999Y-62925001D01*
X210200000Y-79200000D02*
X210200000Y-74400000D01*
X220400000Y-64000000D02*
X219600000Y-64000000D01*
X210200000Y-74400000D02*
X205400000Y-69600000D01*
X210774999Y-79774999D02*
X210200000Y-79200000D01*
X221474999Y-62925001D02*
X220400000Y-64000000D01*
X218974999Y-64625001D02*
X218974999Y-66974999D01*
X220825001Y-68825001D02*
X220825001Y-71025001D01*
X218974999Y-66974999D02*
X220825001Y-68825001D01*
X220825001Y-71025001D02*
X220825001Y-77425001D01*
X220825001Y-70778588D02*
X220825001Y-71025001D01*
X220825001Y-77425001D02*
X220825001Y-78574999D01*
X219625001Y-79774999D02*
X210774999Y-79774999D01*
X220825001Y-78574999D02*
X219625001Y-79774999D01*
%TO.N,Net-(C28-Pad2)*%
X139785002Y-55380000D02*
X139580000Y-55380000D01*
X144500000Y-50000000D02*
X143510051Y-50000000D01*
X139580000Y-55380000D02*
X140960000Y-54000000D01*
X140960000Y-54000000D02*
X142000000Y-54000000D01*
X142000000Y-54000000D02*
X142200000Y-53800000D01*
X142200000Y-51310051D02*
X143510051Y-50000000D01*
X142200000Y-53800000D02*
X142200000Y-51310051D01*
%TO.N,Net-(C31-Pad2)*%
X142500000Y-45685002D02*
X148045001Y-51230003D01*
X142500000Y-38500000D02*
X142500000Y-45685002D01*
X150398960Y-74000000D02*
X151000000Y-74000000D01*
X148600000Y-72201040D02*
X150398960Y-74000000D01*
X148600000Y-64200000D02*
X148600000Y-72201040D01*
X148045001Y-51230003D02*
X148045001Y-51245001D01*
X148045001Y-51245001D02*
X150000000Y-53200000D01*
X150000000Y-62800000D02*
X148600000Y-64200000D01*
X150000000Y-53200000D02*
X150000000Y-62800000D01*
X135900000Y-64400000D02*
X135650000Y-64150000D01*
X145600000Y-64400000D02*
X135900000Y-64400000D01*
X147877304Y-63477304D02*
X146522696Y-63477304D01*
X135725001Y-64225001D02*
X135650000Y-64150000D01*
X135650000Y-64150000D02*
X134500000Y-63000000D01*
X148600000Y-64200000D02*
X147877304Y-63477304D01*
X146522696Y-63477304D02*
X145600000Y-64400000D01*
%TO.N,Net-(C32-Pad2)*%
X137040000Y-51460000D02*
X141000000Y-47500000D01*
X137040000Y-55380000D02*
X137040000Y-51460000D01*
%TO.N,Net-(J2-Pad2)*%
X228000000Y-54500000D02*
X237000000Y-54500000D01*
X227500000Y-54000000D02*
X228000000Y-54500000D01*
D27*
%TO.N,+15V*%
X110000000Y-59000000D02*
X115000000Y-59000000D01*
X144000000Y-57000000D02*
X146920000Y-57000000D01*
X143000000Y-58000000D02*
X144000000Y-57000000D01*
X137120000Y-58000000D02*
X143000000Y-58000000D01*
X134500000Y-55380000D02*
X137120000Y-58000000D01*
X134500000Y-55380000D02*
X119820000Y-55380000D01*
X116200000Y-59000000D02*
X115000000Y-59000000D01*
X119820000Y-55380000D02*
X116200000Y-59000000D01*
%TO.N,-15V*%
X110000000Y-64000000D02*
X115000000Y-64000000D01*
X120000000Y-64000000D02*
X122350001Y-61649999D01*
X115000000Y-64000000D02*
X120000000Y-64000000D01*
X122350001Y-61649999D02*
X132350001Y-61649999D01*
X132350001Y-61649999D02*
X133200000Y-60800000D01*
X133200000Y-60800000D02*
X139920000Y-60800000D01*
X139920000Y-60800000D02*
X140960000Y-61840000D01*
X140960000Y-61840000D02*
X142120000Y-63000000D01*
X140769999Y-61649999D02*
X140960000Y-61840000D01*
D28*
%TO.N,Net-(R38-Pad1)*%
X216000000Y-37800000D02*
X215200000Y-37800000D01*
X216000000Y-37800000D02*
X217800000Y-39600000D01*
X217800000Y-39600000D02*
X217800000Y-45000000D01*
X213165900Y-49634100D02*
X213165900Y-78484304D01*
X217800000Y-45000000D02*
X213165900Y-49634100D01*
X213165900Y-78484304D02*
X213165900Y-79049989D01*
%TO.N,Net-(R40-Pad2)*%
X216000000Y-43000000D02*
X216000000Y-42800000D01*
X194600000Y-45600000D02*
X203600000Y-45600000D01*
X191000000Y-49200000D02*
X194600000Y-45600000D01*
X178400000Y-49200000D02*
X191000000Y-49200000D01*
X203600000Y-45600000D02*
X206400000Y-42800000D01*
X178074999Y-49525001D02*
X178400000Y-49200000D01*
X206400000Y-42800000D02*
X216000000Y-42800000D01*
X150569949Y-50000000D02*
X151044948Y-49525001D01*
X151044948Y-49525001D02*
X178074999Y-49525001D01*
X149580000Y-50000000D02*
X150569949Y-50000000D01*
%TO.N,Net-(RV3-Pad4)*%
X228000000Y-40800000D02*
X226000000Y-42800000D01*
X226000000Y-42800000D02*
X221000000Y-42800000D01*
X149073000Y-39127000D02*
X147500000Y-39127000D01*
X152175000Y-35025000D02*
X150000000Y-37200000D01*
X150000000Y-38200000D02*
X149073000Y-39127000D01*
X150000000Y-37200000D02*
X150000000Y-38200000D01*
X228000000Y-40800000D02*
X228000000Y-36800000D01*
X228000000Y-36800000D02*
X226000000Y-34800000D01*
X152400000Y-34800000D02*
X152175000Y-35025000D01*
X226000000Y-34800000D02*
X152400000Y-34800000D01*
%TO.N,Net-(RV3-Pad1)*%
X226000000Y-37800000D02*
X221000000Y-37800000D01*
X218574999Y-78425001D02*
X218504999Y-78495001D01*
X218574999Y-69164997D02*
X218574999Y-78425001D01*
X218000000Y-61000000D02*
X218000000Y-68589998D01*
X218600000Y-60400000D02*
X218000000Y-61000000D01*
X218600000Y-55400000D02*
X218600000Y-60400000D01*
X219000000Y-55000000D02*
X218600000Y-55400000D01*
X219000000Y-42000000D02*
X219000000Y-55000000D01*
X218000000Y-68589998D02*
X218574999Y-69164997D01*
X221000000Y-40000000D02*
X219000000Y-42000000D01*
X221000000Y-37800000D02*
X221000000Y-40000000D01*
%TD*%
M02*
