%TF.GenerationSoftware,KiCad,Pcbnew,(5.1.6-0-10_14)*%
%TF.CreationDate,2020-08-17T21:01:39+02:00*%
%TF.ProjectId,MIXER V2 PCB,4d495845-5220-4563-9220-5043422e6b69,rev?*%
%TF.SameCoordinates,Original*%
%TF.FileFunction,Copper,L2,Bot*%
%TF.FilePolarity,Positive*%
%FSLAX46Y46*%
G04 Gerber Fmt 4.6, Leading zero omitted, Abs format (unit mm)*
G04 Created by KiCad (PCBNEW (5.1.6-0-10_14)) date 2020-08-17 21:01:39*
%MOMM*%
%LPD*%
G01*
G04 APERTURE LIST*
%TA.AperFunction,ComponentPad*%
%ADD10R,1.000000X1.000000*%
%TD*%
%TA.AperFunction,ComponentPad*%
%ADD11O,1.000000X1.000000*%
%TD*%
%TA.AperFunction,ComponentPad*%
%ADD12C,0.850000*%
%TD*%
%TA.AperFunction,ComponentPad*%
%ADD13O,0.850000X0.850000*%
%TD*%
%TA.AperFunction,ComponentPad*%
%ADD14R,0.850000X0.850000*%
%TD*%
%TA.AperFunction,ComponentPad*%
%ADD15O,1.400000X1.400000*%
%TD*%
%TA.AperFunction,ComponentPad*%
%ADD16C,1.400000*%
%TD*%
%TA.AperFunction,ComponentPad*%
%ADD17C,1.600000*%
%TD*%
%TA.AperFunction,ComponentPad*%
%ADD18R,1.600000X1.600000*%
%TD*%
%TA.AperFunction,ComponentPad*%
%ADD19R,1.500000X1.050000*%
%TD*%
%TA.AperFunction,ComponentPad*%
%ADD20O,1.500000X1.050000*%
%TD*%
%TA.AperFunction,ComponentPad*%
%ADD21C,2.340000*%
%TD*%
%TA.AperFunction,ComponentPad*%
%ADD22O,1.600000X1.600000*%
%TD*%
%TA.AperFunction,ComponentPad*%
%ADD23R,3.000000X1.500000*%
%TD*%
%TA.AperFunction,ComponentPad*%
%ADD24O,3.000000X1.500000*%
%TD*%
%TA.AperFunction,ViaPad*%
%ADD25C,1.000000*%
%TD*%
%TA.AperFunction,ViaPad*%
%ADD26C,0.800000*%
%TD*%
%TA.AperFunction,Conductor*%
%ADD27C,0.250000*%
%TD*%
%TA.AperFunction,Conductor*%
%ADD28C,0.500000*%
%TD*%
G04 APERTURE END LIST*
D10*
%TO.P,SW3,1*%
%TO.N,Net-(R54-Pad1)*%
X232000000Y-50300000D03*
D11*
%TO.P,SW3,2*%
%TO.N,Net-(J4-Pad2)*%
X233270000Y-50300000D03*
%TO.P,SW3,3*%
%TO.N,Net-(R53-Pad1)*%
X232000000Y-49030000D03*
%TO.P,SW3,4*%
%TO.N,Net-(J4-Pad1)*%
X233270000Y-49030000D03*
%TO.P,SW3,5*%
%TO.N,N/C*%
X232000000Y-47760000D03*
%TO.P,SW3,6*%
X233270000Y-47760000D03*
%TD*%
D12*
%TO.P,J1,1*%
%TO.N,Net-(C24-Pad2)*%
X101873000Y-59500000D03*
D13*
%TO.P,J1,2*%
%TO.N,Net-(C23-Pad2)*%
X103000000Y-59500000D03*
D14*
%TO.P,J1,3*%
%TO.N,GND*%
X104159000Y-59500000D03*
%TD*%
D13*
%TO.P,SW2,3*%
%TO.N,Net-(C30-Pad1)*%
X147500000Y-36841000D03*
%TO.P,SW2,2*%
%TO.N,Net-(C32-Pad2)*%
X147500000Y-38000000D03*
D14*
%TO.P,SW2,1*%
%TO.N,Net-(RV3-Pad4)*%
X147500000Y-39127000D03*
%TD*%
%TO.P,SW1,1*%
%TO.N,Net-(RV3-Pad1)*%
X151000000Y-75127000D03*
D13*
%TO.P,SW1,2*%
%TO.N,Net-(C31-Pad2)*%
X151000000Y-74000000D03*
%TO.P,SW1,3*%
%TO.N,Net-(C29-Pad1)*%
X151000000Y-72841000D03*
%TD*%
D14*
%TO.P,J2,3*%
%TO.N,GND*%
X237000000Y-55659000D03*
D13*
%TO.P,J2,2*%
%TO.N,Net-(J2-Pad2)*%
X237000000Y-54500000D03*
D12*
%TO.P,J2,1*%
%TO.N,Net-(J2-Pad1)*%
X237000000Y-53373000D03*
%TD*%
%TO.P,J4,1*%
%TO.N,Net-(J4-Pad1)*%
X236900000Y-48173000D03*
D13*
%TO.P,J4,2*%
%TO.N,Net-(J4-Pad2)*%
X236900000Y-49300000D03*
D14*
%TO.P,J4,3*%
%TO.N,GND*%
X236900000Y-50459000D03*
%TD*%
D15*
%TO.P,R43,2*%
%TO.N,Net-(C21-Pad2)*%
X222420000Y-49000000D03*
D16*
%TO.P,R43,1*%
%TO.N,Net-(J2-Pad1)*%
X227500000Y-49000000D03*
%TD*%
D17*
%TO.P,C1,1*%
%TO.N,Net-(C1-Pad1)*%
X143500000Y-52500000D03*
%TO.P,C1,2*%
%TO.N,Net-(C1-Pad2)*%
X141000000Y-52500000D03*
%TD*%
%TO.P,C2,2*%
%TO.N,Net-(C2-Pad2)*%
X144000000Y-66000000D03*
%TO.P,C2,1*%
%TO.N,Net-(C2-Pad1)*%
X144000000Y-68500000D03*
%TD*%
%TO.P,C3,2*%
%TO.N,GND*%
X181000000Y-57000000D03*
D18*
%TO.P,C3,1*%
%TO.N,Net-(C3-Pad1)*%
X181000000Y-54500000D03*
%TD*%
D17*
%TO.P,C4,2*%
%TO.N,Net-(C4-Pad2)*%
X188200000Y-54500000D03*
D18*
%TO.P,C4,1*%
%TO.N,Net-(C4-Pad1)*%
X188200000Y-57000000D03*
%TD*%
D17*
%TO.P,C5,2*%
%TO.N,GND*%
X185000000Y-63500000D03*
D18*
%TO.P,C5,1*%
%TO.N,Net-(C5-Pad1)*%
X182500000Y-63500000D03*
%TD*%
D17*
%TO.P,C6,2*%
%TO.N,Net-(C6-Pad2)*%
X160500000Y-62000000D03*
D18*
%TO.P,C6,1*%
%TO.N,Net-(C6-Pad1)*%
X163000000Y-62000000D03*
%TD*%
D17*
%TO.P,C7,1*%
%TO.N,Net-(C7-Pad1)*%
X181500000Y-37000000D03*
%TO.P,C7,2*%
%TO.N,Net-(C11-Pad2)*%
X181500000Y-39500000D03*
%TD*%
%TO.P,C8,1*%
%TO.N,Net-(C8-Pad1)*%
X167334999Y-48400000D03*
%TO.P,C8,2*%
%TO.N,Net-(C12-Pad2)*%
X167334999Y-50900000D03*
%TD*%
%TO.P,C9,1*%
%TO.N,Net-(C9-Pad1)*%
X189000000Y-50500000D03*
%TO.P,C9,2*%
%TO.N,Net-(C9-Pad2)*%
X189000000Y-48000000D03*
%TD*%
%TO.P,C10,1*%
%TO.N,Net-(C10-Pad1)*%
X196000000Y-48000000D03*
%TO.P,C10,2*%
%TO.N,Net-(C10-Pad2)*%
X198500000Y-48000000D03*
%TD*%
%TO.P,C11,2*%
%TO.N,Net-(C11-Pad2)*%
X181500000Y-42000000D03*
%TO.P,C11,1*%
%TO.N,Net-(C11-Pad1)*%
X181500000Y-44500000D03*
%TD*%
%TO.P,C12,2*%
%TO.N,Net-(C12-Pad2)*%
X169950000Y-50850000D03*
%TO.P,C12,1*%
%TO.N,Net-(C12-Pad1)*%
X169950000Y-48350000D03*
%TD*%
D18*
%TO.P,C15,1*%
%TO.N,Net-(C15-Pad1)*%
X217200000Y-71800000D03*
D17*
%TO.P,C15,2*%
%TO.N,Net-(C15-Pad2)*%
X219700000Y-71800000D03*
%TD*%
%TO.P,C16,2*%
%TO.N,Net-(C16-Pad2)*%
X202000000Y-53500000D03*
D18*
%TO.P,C16,1*%
%TO.N,Net-(C16-Pad1)*%
X202000000Y-56000000D03*
%TD*%
%TO.P,C17,1*%
%TO.N,Net-(C17-Pad1)*%
X208000000Y-39800000D03*
D17*
%TO.P,C17,2*%
%TO.N,Net-(C17-Pad2)*%
X208000000Y-37300000D03*
%TD*%
D18*
%TO.P,C18,1*%
%TO.N,Net-(C18-Pad1)*%
X208000000Y-47000000D03*
D17*
%TO.P,C18,2*%
%TO.N,Net-(C18-Pad2)*%
X208000000Y-44500000D03*
%TD*%
D18*
%TO.P,C21,1*%
%TO.N,Net-(C17-Pad1)*%
X187000000Y-73500000D03*
D17*
%TO.P,C21,2*%
%TO.N,Net-(C21-Pad2)*%
X187000000Y-71000000D03*
%TD*%
D18*
%TO.P,C22,1*%
%TO.N,Net-(C18-Pad1)*%
X192400000Y-63600000D03*
D17*
%TO.P,C22,2*%
%TO.N,Net-(C22-Pad2)*%
X194900000Y-63600000D03*
%TD*%
D18*
%TO.P,C23,1*%
%TO.N,Net-(C23-Pad1)*%
X124000000Y-75000000D03*
D17*
%TO.P,C23,2*%
%TO.N,Net-(C23-Pad2)*%
X121500000Y-75000000D03*
%TD*%
%TO.P,C24,2*%
%TO.N,Net-(C24-Pad2)*%
X104000000Y-38500000D03*
D18*
%TO.P,C24,1*%
%TO.N,Net-(C24-Pad1)*%
X106500000Y-38500000D03*
%TD*%
%TO.P,C25,1*%
%TO.N,Net-(C25-Pad1)*%
X112500000Y-73500000D03*
D17*
%TO.P,C25,2*%
%TO.N,GND*%
X112500000Y-71000000D03*
%TD*%
%TO.P,C26,2*%
%TO.N,GND*%
X112000000Y-47100000D03*
D18*
%TO.P,C26,1*%
%TO.N,Net-(C26-Pad1)*%
X112000000Y-44600000D03*
%TD*%
D17*
%TO.P,C27,2*%
%TO.N,Net-(C27-Pad2)*%
X137650000Y-68700000D03*
%TO.P,C27,1*%
%TO.N,Net-(C27-Pad1)*%
X137650000Y-71200000D03*
%TD*%
%TO.P,C28,1*%
%TO.N,Net-(C28-Pad1)*%
X151850000Y-45900000D03*
%TO.P,C28,2*%
%TO.N,Net-(C28-Pad2)*%
X149350000Y-45900000D03*
%TD*%
%TO.P,C29,1*%
%TO.N,Net-(C29-Pad1)*%
X137650000Y-73700000D03*
%TO.P,C29,2*%
%TO.N,Net-(C27-Pad1)*%
X137650000Y-76200000D03*
%TD*%
%TO.P,C30,2*%
%TO.N,Net-(C28-Pad1)*%
X157350000Y-43400000D03*
%TO.P,C30,1*%
%TO.N,Net-(C30-Pad1)*%
X157350000Y-40900000D03*
%TD*%
%TO.P,C31,2*%
%TO.N,Net-(C31-Pad2)*%
X142500000Y-38500000D03*
D18*
%TO.P,C31,1*%
%TO.N,Net-(C31-Pad1)*%
X140000000Y-38500000D03*
%TD*%
%TO.P,C32,1*%
%TO.N,Net-(C32-Pad1)*%
X141000000Y-45000000D03*
D17*
%TO.P,C32,2*%
%TO.N,Net-(C32-Pad2)*%
X141000000Y-47500000D03*
%TD*%
D19*
%TO.P,Q1,1*%
%TO.N,Net-(Q1-Pad1)*%
X158000000Y-54000000D03*
D20*
%TO.P,Q1,3*%
%TO.N,Net-(C3-Pad1)*%
X158000000Y-56540000D03*
%TO.P,Q1,2*%
%TO.N,Net-(C1-Pad1)*%
X158000000Y-55270000D03*
%TD*%
%TO.P,Q2,2*%
%TO.N,Net-(C2-Pad1)*%
X163000000Y-68730000D03*
%TO.P,Q2,3*%
%TO.N,Net-(C5-Pad1)*%
X163000000Y-67460000D03*
D19*
%TO.P,Q2,1*%
%TO.N,Net-(Q2-Pad1)*%
X163000000Y-70000000D03*
%TD*%
D20*
%TO.P,Q3,2*%
%TO.N,Net-(Q1-Pad1)*%
X168500000Y-55270000D03*
%TO.P,Q3,3*%
%TO.N,Net-(C3-Pad1)*%
X168500000Y-56540000D03*
D19*
%TO.P,Q3,1*%
%TO.N,Net-(C4-Pad1)*%
X168500000Y-54000000D03*
%TD*%
%TO.P,Q4,1*%
%TO.N,Net-(C6-Pad1)*%
X171500000Y-70000000D03*
D20*
%TO.P,Q4,3*%
%TO.N,Net-(C5-Pad1)*%
X171500000Y-67460000D03*
%TO.P,Q4,2*%
%TO.N,Net-(Q2-Pad1)*%
X171500000Y-68730000D03*
%TD*%
D19*
%TO.P,Q5,1*%
%TO.N,Net-(Q5-Pad1)*%
X216000000Y-52000000D03*
D20*
%TO.P,Q5,3*%
%TO.N,Net-(C17-Pad1)*%
X216000000Y-49460000D03*
%TO.P,Q5,2*%
%TO.N,Net-(C15-Pad1)*%
X216000000Y-50730000D03*
%TD*%
%TO.P,Q6,2*%
%TO.N,Net-(C16-Pad1)*%
X208800000Y-52330000D03*
%TO.P,Q6,3*%
%TO.N,Net-(C18-Pad1)*%
X208800000Y-51060000D03*
D19*
%TO.P,Q6,1*%
%TO.N,Net-(Q6-Pad1)*%
X208800000Y-53600000D03*
%TD*%
D16*
%TO.P,R1,1*%
%TO.N,Net-(C3-Pad1)*%
X152000000Y-57000000D03*
D15*
%TO.P,R1,2*%
%TO.N,+15V*%
X146920000Y-57000000D03*
%TD*%
%TO.P,R2,2*%
%TO.N,Net-(C3-Pad1)*%
X152080000Y-53000000D03*
D16*
%TO.P,R2,1*%
%TO.N,Net-(C1-Pad1)*%
X147000000Y-53000000D03*
%TD*%
%TO.P,R3,1*%
%TO.N,GND*%
X162500000Y-57000000D03*
D15*
%TO.P,R3,2*%
%TO.N,Net-(C1-Pad1)*%
X162500000Y-51920000D03*
%TD*%
D16*
%TO.P,R4,1*%
%TO.N,Net-(C2-Pad1)*%
X147000000Y-65500000D03*
D15*
%TO.P,R4,2*%
%TO.N,Net-(C5-Pad1)*%
X152080000Y-65500000D03*
%TD*%
D16*
%TO.P,R5,1*%
%TO.N,GND*%
X166500000Y-63500000D03*
D15*
%TO.P,R5,2*%
%TO.N,Net-(C2-Pad1)*%
X166500000Y-68580000D03*
%TD*%
%TO.P,R6,2*%
%TO.N,Net-(C5-Pad1)*%
X152080000Y-61500000D03*
D16*
%TO.P,R6,1*%
%TO.N,+15V*%
X147000000Y-61500000D03*
%TD*%
D15*
%TO.P,R7,2*%
%TO.N,Net-(Q1-Pad1)*%
X176500000Y-52920000D03*
D16*
%TO.P,R7,1*%
%TO.N,GND*%
X176500000Y-58000000D03*
%TD*%
D15*
%TO.P,R8,2*%
%TO.N,Net-(Q2-Pad1)*%
X158280000Y-68400000D03*
D16*
%TO.P,R8,1*%
%TO.N,GND*%
X153200000Y-68400000D03*
%TD*%
%TO.P,R9,1*%
%TO.N,Net-(C4-Pad1)*%
X174000000Y-53000000D03*
D15*
%TO.P,R9,2*%
%TO.N,GND*%
X174000000Y-58080000D03*
%TD*%
D16*
%TO.P,R10,1*%
%TO.N,Net-(C6-Pad1)*%
X175500000Y-70000000D03*
D15*
%TO.P,R10,2*%
%TO.N,GND*%
X175500000Y-64920000D03*
%TD*%
%TO.P,R11,2*%
%TO.N,Net-(C4-Pad2)*%
X184200000Y-41880000D03*
D16*
%TO.P,R11,1*%
%TO.N,Net-(C7-Pad1)*%
X184200000Y-36800000D03*
%TD*%
D15*
%TO.P,R12,2*%
%TO.N,Net-(C6-Pad2)*%
X164800000Y-57080000D03*
D16*
%TO.P,R12,1*%
%TO.N,Net-(C8-Pad1)*%
X164800000Y-52000000D03*
%TD*%
D15*
%TO.P,R13,2*%
%TO.N,Net-(C11-Pad2)*%
X181420000Y-50500000D03*
D16*
%TO.P,R13,1*%
%TO.N,Net-(C9-Pad1)*%
X186500000Y-50500000D03*
%TD*%
%TO.P,R14,1*%
%TO.N,Net-(C10-Pad1)*%
X196000000Y-50800000D03*
D15*
%TO.P,R14,2*%
%TO.N,Net-(C12-Pad2)*%
X196000000Y-55880000D03*
%TD*%
D16*
%TO.P,R15,1*%
%TO.N,Net-(C9-Pad1)*%
X204000000Y-59600000D03*
D15*
%TO.P,R15,2*%
%TO.N,Net-(C15-Pad2)*%
X204000000Y-64680000D03*
%TD*%
D16*
%TO.P,R16,1*%
%TO.N,Net-(C10-Pad1)*%
X193400000Y-50800000D03*
D15*
%TO.P,R16,2*%
%TO.N,Net-(C16-Pad2)*%
X193400000Y-55880000D03*
%TD*%
D16*
%TO.P,R17,1*%
%TO.N,Net-(C17-Pad2)*%
X186500000Y-48000000D03*
D15*
%TO.P,R17,2*%
%TO.N,Net-(C11-Pad1)*%
X181420000Y-48000000D03*
%TD*%
D16*
%TO.P,R18,1*%
%TO.N,Net-(C18-Pad2)*%
X177450000Y-48350000D03*
D15*
%TO.P,R18,2*%
%TO.N,Net-(C12-Pad1)*%
X172370000Y-48350000D03*
%TD*%
%TO.P,R19,2*%
%TO.N,Net-(C15-Pad1)*%
X217080000Y-58500000D03*
D16*
%TO.P,R19,1*%
%TO.N,Net-(C3-Pad1)*%
X212000000Y-58500000D03*
%TD*%
D15*
%TO.P,R20,2*%
%TO.N,GND*%
X215000000Y-67080000D03*
D16*
%TO.P,R20,1*%
%TO.N,Net-(C15-Pad1)*%
X215000000Y-62000000D03*
%TD*%
%TO.P,R21,1*%
%TO.N,Net-(C5-Pad1)*%
X174000000Y-75400000D03*
D15*
%TO.P,R21,2*%
%TO.N,Net-(C16-Pad1)*%
X179080000Y-75400000D03*
%TD*%
D16*
%TO.P,R22,1*%
%TO.N,Net-(C16-Pad1)*%
X182000000Y-74500000D03*
D15*
%TO.P,R22,2*%
%TO.N,GND*%
X182000000Y-69420000D03*
%TD*%
%TO.P,R23,2*%
%TO.N,Net-(C17-Pad1)*%
X217080000Y-55500000D03*
D16*
%TO.P,R23,1*%
%TO.N,Net-(C3-Pad1)*%
X212000000Y-55500000D03*
%TD*%
%TO.P,R24,1*%
%TO.N,Net-(Q5-Pad1)*%
X220000000Y-56400000D03*
D15*
%TO.P,R24,2*%
%TO.N,GND*%
X220000000Y-61480000D03*
%TD*%
%TO.P,R25,2*%
%TO.N,Net-(C18-Pad1)*%
X179080000Y-72800000D03*
D16*
%TO.P,R25,1*%
%TO.N,Net-(C5-Pad1)*%
X174000000Y-72800000D03*
%TD*%
D15*
%TO.P,R26,2*%
%TO.N,GND*%
X227580000Y-62000000D03*
D16*
%TO.P,R26,1*%
%TO.N,Net-(Q6-Pad1)*%
X222500000Y-62000000D03*
%TD*%
D15*
%TO.P,R27,2*%
%TO.N,GND*%
X178500000Y-61920000D03*
D16*
%TO.P,R27,1*%
%TO.N,Net-(C21-Pad2)*%
X178500000Y-67000000D03*
%TD*%
D15*
%TO.P,R28,2*%
%TO.N,GND*%
X227580000Y-59000000D03*
D16*
%TO.P,R28,1*%
%TO.N,Net-(C22-Pad2)*%
X222500000Y-59000000D03*
%TD*%
D15*
%TO.P,R31,2*%
%TO.N,GND*%
X104000000Y-69920000D03*
D16*
%TO.P,R31,1*%
%TO.N,Net-(C23-Pad2)*%
X104000000Y-75000000D03*
%TD*%
D15*
%TO.P,R32,2*%
%TO.N,GND*%
X104000000Y-48580000D03*
D16*
%TO.P,R32,1*%
%TO.N,Net-(C24-Pad2)*%
X104000000Y-43500000D03*
%TD*%
%TO.P,R33,1*%
%TO.N,Net-(C23-Pad1)*%
X107000000Y-75000000D03*
D15*
%TO.P,R33,2*%
%TO.N,GND*%
X107000000Y-69920000D03*
%TD*%
D16*
%TO.P,R34,1*%
%TO.N,Net-(C24-Pad1)*%
X107000000Y-43500000D03*
D15*
%TO.P,R34,2*%
%TO.N,GND*%
X107000000Y-48580000D03*
%TD*%
%TO.P,R35,2*%
%TO.N,Net-(C25-Pad1)*%
X117920000Y-70000000D03*
D16*
%TO.P,R35,1*%
%TO.N,Net-(C27-Pad2)*%
X123000000Y-70000000D03*
%TD*%
D15*
%TO.P,R36,2*%
%TO.N,Net-(C26-Pad1)*%
X117920000Y-48500000D03*
D16*
%TO.P,R36,1*%
%TO.N,Net-(C28-Pad2)*%
X123000000Y-48500000D03*
%TD*%
%TO.P,R37,1*%
%TO.N,Net-(C27-Pad1)*%
X134600000Y-76190000D03*
D15*
%TO.P,R37,2*%
%TO.N,Net-(C27-Pad2)*%
X134600000Y-71110000D03*
%TD*%
D16*
%TO.P,R38,1*%
%TO.N,Net-(R38-Pad1)*%
X132150000Y-76200000D03*
D15*
%TO.P,R38,2*%
%TO.N,Net-(C27-Pad2)*%
X132150000Y-71120000D03*
%TD*%
D16*
%TO.P,R39,1*%
%TO.N,Net-(C28-Pad2)*%
X151850000Y-38400000D03*
D15*
%TO.P,R39,2*%
%TO.N,Net-(C28-Pad1)*%
X151850000Y-43480000D03*
%TD*%
D16*
%TO.P,R40,1*%
%TO.N,Net-(C28-Pad2)*%
X144500000Y-50000000D03*
D15*
%TO.P,R40,2*%
%TO.N,Net-(R40-Pad2)*%
X149580000Y-50000000D03*
%TD*%
%TO.P,R41,2*%
%TO.N,Net-(C27-Pad1)*%
X139920000Y-76200000D03*
D16*
%TO.P,R41,1*%
%TO.N,Net-(C29-Pad1)*%
X145000000Y-76200000D03*
%TD*%
D15*
%TO.P,R42,2*%
%TO.N,Net-(C30-Pad1)*%
X154675001Y-38344999D03*
D16*
%TO.P,R42,1*%
%TO.N,Net-(C28-Pad1)*%
X154675001Y-43424999D03*
%TD*%
%TO.P,R44,1*%
%TO.N,Net-(J2-Pad2)*%
X227500000Y-54000000D03*
D15*
%TO.P,R44,2*%
%TO.N,Net-(C22-Pad2)*%
X222420000Y-54000000D03*
%TD*%
D21*
%TO.P,RV1,4*%
%TO.N,Net-(C12-Pad1)*%
X174000000Y-43000000D03*
%TO.P,RV1,5*%
%TO.N,Net-(C12-Pad2)*%
X169000000Y-43000000D03*
%TO.P,RV1,6*%
%TO.N,Net-(C8-Pad1)*%
X164000000Y-43000000D03*
%TO.P,RV1,1*%
%TO.N,Net-(C11-Pad1)*%
X174000000Y-38000000D03*
%TO.P,RV1,2*%
%TO.N,Net-(C11-Pad2)*%
X169000000Y-38000000D03*
%TO.P,RV1,3*%
%TO.N,Net-(C7-Pad1)*%
X164000000Y-38000000D03*
%TD*%
%TO.P,RV2,3*%
%TO.N,Net-(C17-Pad2)*%
X190000000Y-38000000D03*
%TO.P,RV2,2*%
%TO.N,Net-(C9-Pad2)*%
X195000000Y-38000000D03*
%TO.P,RV2,1*%
%TO.N,Net-(C4-Pad2)*%
X200000000Y-38000000D03*
%TO.P,RV2,6*%
%TO.N,Net-(C18-Pad2)*%
X190000000Y-43000000D03*
%TO.P,RV2,5*%
%TO.N,Net-(C10-Pad2)*%
X195000000Y-43000000D03*
%TO.P,RV2,4*%
%TO.N,Net-(C6-Pad2)*%
X200000000Y-43000000D03*
%TD*%
%TO.P,RV3,4*%
%TO.N,Net-(RV3-Pad4)*%
X226000000Y-42800000D03*
%TO.P,RV3,5*%
X221000000Y-42800000D03*
%TO.P,RV3,6*%
%TO.N,Net-(R40-Pad2)*%
X216000000Y-42800000D03*
%TO.P,RV3,1*%
%TO.N,Net-(RV3-Pad1)*%
X226000000Y-37800000D03*
%TO.P,RV3,2*%
X221000000Y-37800000D03*
%TO.P,RV3,3*%
%TO.N,Net-(R38-Pad1)*%
X216000000Y-37800000D03*
%TD*%
%TO.P,RV4,3*%
%TO.N,GND*%
X120000000Y-38000000D03*
%TO.P,RV4,2*%
%TO.N,Net-(C1-Pad2)*%
X125000000Y-38000000D03*
%TO.P,RV4,1*%
%TO.N,Net-(C31-Pad1)*%
X130000000Y-38000000D03*
%TO.P,RV4,6*%
%TO.N,GND*%
X120000000Y-43000000D03*
%TO.P,RV4,5*%
%TO.N,Net-(C2-Pad2)*%
X125000000Y-43000000D03*
%TO.P,RV4,4*%
%TO.N,Net-(C32-Pad1)*%
X130000000Y-43000000D03*
%TD*%
D18*
%TO.P,U1,1*%
%TO.N,Net-(C31-Pad2)*%
X134500000Y-63000000D03*
D22*
%TO.P,U1,5*%
%TO.N,Net-(C24-Pad1)*%
X142120000Y-55380000D03*
%TO.P,U1,2*%
%TO.N,Net-(C27-Pad2)*%
X137040000Y-63000000D03*
%TO.P,U1,6*%
%TO.N,Net-(C28-Pad2)*%
X139580000Y-55380000D03*
%TO.P,U1,3*%
%TO.N,Net-(C23-Pad1)*%
X139580000Y-63000000D03*
%TO.P,U1,7*%
%TO.N,Net-(C32-Pad2)*%
X137040000Y-55380000D03*
%TO.P,U1,4*%
%TO.N,-15V*%
X142120000Y-63000000D03*
%TO.P,U1,8*%
%TO.N,+15V*%
X134500000Y-55380000D03*
%TD*%
D23*
%TO.P,J3,1*%
%TO.N,GND*%
X115000000Y-54000000D03*
X110000000Y-54000000D03*
D24*
%TO.P,J3,2*%
%TO.N,+15V*%
X115000000Y-59000000D03*
X110000000Y-59000000D03*
%TO.P,J3,3*%
%TO.N,-15V*%
X115000000Y-64000000D03*
X110000000Y-64000000D03*
%TD*%
D16*
%TO.P,R53,1*%
%TO.N,Net-(R53-Pad1)*%
X227500000Y-51500000D03*
D15*
%TO.P,R53,2*%
%TO.N,Net-(C21-Pad2)*%
X222420000Y-51500000D03*
%TD*%
%TO.P,R54,2*%
%TO.N,Net-(C22-Pad2)*%
X222420000Y-56500000D03*
D16*
%TO.P,R54,1*%
%TO.N,Net-(R54-Pad1)*%
X227500000Y-56500000D03*
%TD*%
D25*
%TO.N,GND*%
X148200000Y-59500000D03*
X156000000Y-59500000D03*
X212000000Y-61500000D03*
X220099991Y-65034496D03*
D26*
%TO.N,Net-(C6-Pad2)*%
X200000000Y-50500000D03*
%TO.N,Net-(C15-Pad2)*%
X212200000Y-74200000D03*
%TO.N,Net-(C16-Pad1)*%
X203959329Y-72774990D03*
%TO.N,Net-(C18-Pad1)*%
X199000000Y-58400000D03*
%TO.N,Net-(R38-Pad1)*%
X213165900Y-79049989D03*
%TO.N,Net-(RV3-Pad1)*%
X218504999Y-78495001D03*
%TD*%
D27*
%TO.N,Net-(C1-Pad1)*%
X144000000Y-53000000D02*
X143500000Y-52500000D01*
X147000000Y-53000000D02*
X144000000Y-53000000D01*
X147000000Y-53000000D02*
X149500000Y-53000000D01*
X149500000Y-53000000D02*
X151500000Y-51000000D01*
X151500000Y-51000000D02*
X154500000Y-51000000D01*
X154500000Y-51000000D02*
X155500000Y-52000000D01*
X157000000Y-55270000D02*
X155500000Y-53770000D01*
X158000000Y-55270000D02*
X157000000Y-55270000D01*
X155500000Y-53770000D02*
X155500000Y-52000000D01*
X162420000Y-52000000D02*
X162500000Y-51920000D01*
X155500000Y-52000000D02*
X162420000Y-52000000D01*
%TO.N,Net-(C1-Pad2)*%
X141000000Y-52500000D02*
X134500000Y-46000000D01*
X134500000Y-46000000D02*
X130000000Y-46000000D01*
X130000000Y-45787398D02*
X127000000Y-42787398D01*
X130000000Y-46000000D02*
X130000000Y-45787398D01*
X127000000Y-40000000D02*
X125000000Y-38000000D01*
X127000000Y-42787398D02*
X127000000Y-40000000D01*
%TO.N,Net-(C2-Pad2)*%
X125000000Y-43000000D02*
X129000000Y-47000000D01*
X129000000Y-47000000D02*
X134000000Y-47000000D01*
X134000000Y-47000000D02*
X139500000Y-52500000D01*
X139500000Y-52500000D02*
X139500000Y-53500000D01*
X139500000Y-53500000D02*
X140000000Y-54000000D01*
X145000000Y-65000000D02*
X144000000Y-66000000D01*
X140000000Y-54000000D02*
X143800000Y-54000000D01*
X143800000Y-54000000D02*
X145000000Y-55200000D01*
X145000000Y-55200000D02*
X145000000Y-65000000D01*
%TO.N,Net-(C2-Pad1)*%
X147000000Y-65500000D02*
X144000000Y-68500000D01*
X148025001Y-66525001D02*
X159795001Y-66525001D01*
X162000000Y-68730000D02*
X163000000Y-68730000D01*
X159795001Y-66525001D02*
X162000000Y-68730000D01*
X147000000Y-65500000D02*
X148025001Y-66525001D01*
X163150000Y-68580000D02*
X163000000Y-68730000D01*
X166500000Y-68580000D02*
X163150000Y-68580000D01*
D28*
%TO.N,GND*%
X111420000Y-69920000D02*
X112500000Y-71000000D01*
X107000000Y-69920000D02*
X111420000Y-69920000D01*
X104000000Y-69920000D02*
X107000000Y-69920000D01*
X104000000Y-48580000D02*
X107000000Y-48580000D01*
X153374999Y-68574999D02*
X153200000Y-68400000D01*
X212000000Y-61500000D02*
X215500000Y-65000000D01*
X215000000Y-65500000D02*
X215500000Y-65000000D01*
X215000000Y-67080000D02*
X215000000Y-65500000D01*
X215500000Y-65000000D02*
X216600000Y-65000000D01*
X220000000Y-65000000D02*
X220034496Y-65034496D01*
X220034496Y-65034496D02*
X220099991Y-65034496D01*
X216600000Y-65000000D02*
X220000000Y-65000000D01*
X220000000Y-64934505D02*
X220099991Y-65034496D01*
X220000000Y-61480000D02*
X220000000Y-64934505D01*
X148200000Y-59500000D02*
X156000000Y-59500000D01*
D27*
%TO.N,Net-(C3-Pad1)*%
X152000000Y-53080000D02*
X152080000Y-53000000D01*
X152000000Y-57000000D02*
X152000000Y-53080000D01*
X157540000Y-57000000D02*
X158000000Y-56540000D01*
X152000000Y-57000000D02*
X157540000Y-57000000D01*
X167500000Y-56540000D02*
X168500000Y-56540000D01*
X166834999Y-55874999D02*
X167500000Y-56540000D01*
X161959999Y-55874999D02*
X166834999Y-55874999D01*
X161294998Y-56540000D02*
X161959999Y-55874999D01*
X158000000Y-56540000D02*
X161294998Y-56540000D01*
X178960000Y-56540000D02*
X181000000Y-54500000D01*
X168500000Y-56540000D02*
X178960000Y-56540000D01*
X212000000Y-58500000D02*
X212000000Y-55500000D01*
X186050000Y-58500000D02*
X182050000Y-54500000D01*
X212000000Y-58500000D02*
X208374999Y-54874999D01*
X208374999Y-54874999D02*
X200939999Y-54874999D01*
X197413600Y-57949989D02*
X196863590Y-58500000D01*
X200939999Y-54874999D02*
X197865009Y-57949989D01*
X197865009Y-57949989D02*
X197413600Y-57949989D01*
X196863590Y-58500000D02*
X186050000Y-58500000D01*
X182050000Y-54500000D02*
X181000000Y-54500000D01*
%TO.N,Net-(C4-Pad2)*%
X186380000Y-41880000D02*
X187760000Y-40500000D01*
X197500000Y-40500000D02*
X200000000Y-38000000D01*
X187760000Y-40500000D02*
X197500000Y-40500000D01*
X184200000Y-41880000D02*
X186380000Y-41880000D01*
X188200000Y-54500000D02*
X188200000Y-53400000D01*
X187525001Y-52725001D02*
X187525001Y-45925001D01*
X188200000Y-53400000D02*
X187525001Y-52725001D01*
X186380000Y-44780000D02*
X186380000Y-41880000D01*
X187525001Y-45925001D02*
X186380000Y-44780000D01*
%TO.N,Net-(C4-Pad1)*%
X172500000Y-54000000D02*
X173500000Y-53000000D01*
X168500000Y-54000000D02*
X172500000Y-54000000D01*
X188200000Y-57000000D02*
X186000000Y-57000000D01*
X186000000Y-57000000D02*
X182000000Y-53000000D01*
X182000000Y-53000000D02*
X178400000Y-53000000D01*
X178400000Y-53000000D02*
X177000000Y-51600000D01*
X175400000Y-51600000D02*
X174000000Y-53000000D01*
X177000000Y-51600000D02*
X175400000Y-51600000D01*
%TO.N,Net-(C5-Pad1)*%
X152080000Y-65500000D02*
X152080000Y-61500000D01*
X161040000Y-65500000D02*
X163000000Y-67460000D01*
X152080000Y-65500000D02*
X161040000Y-65500000D01*
X171500000Y-67460000D02*
X169960000Y-67460000D01*
X169960000Y-67460000D02*
X170000000Y-67460000D01*
X163000000Y-67460000D02*
X169960000Y-67460000D01*
X171500000Y-67460000D02*
X171725000Y-67460000D01*
X178585002Y-63500000D02*
X173217502Y-68867500D01*
X182500000Y-63500000D02*
X178585002Y-63500000D01*
X173132500Y-68867500D02*
X174000000Y-69735000D01*
X173217502Y-68867500D02*
X173132500Y-68867500D01*
X171725000Y-67460000D02*
X173132500Y-68867500D01*
X174000000Y-69735000D02*
X174000000Y-72800000D01*
X174000000Y-75400000D02*
X174000000Y-72800000D01*
%TO.N,Net-(C6-Pad2)*%
X200000000Y-43000000D02*
X200000000Y-50500000D01*
X160500000Y-61380000D02*
X160500000Y-62000000D01*
X164800000Y-57080000D02*
X160500000Y-61380000D01*
%TO.N,Net-(C7-Pad1)*%
X181700000Y-36800000D02*
X181500000Y-37000000D01*
X179549991Y-35049991D02*
X166950009Y-35049991D01*
X166950009Y-35049991D02*
X164000000Y-38000000D01*
X181500000Y-37000000D02*
X179549991Y-35049991D01*
X184000000Y-37000000D02*
X184200000Y-36800000D01*
X181500000Y-37000000D02*
X184000000Y-37000000D01*
%TO.N,Net-(C11-Pad2)*%
X181500000Y-39500000D02*
X181500000Y-42000000D01*
X183500000Y-44500000D02*
X183500000Y-48420000D01*
X182000000Y-43000000D02*
X183500000Y-44500000D01*
X183500000Y-48420000D02*
X181420000Y-50500000D01*
X182000000Y-42500000D02*
X182000000Y-43000000D01*
X181500000Y-42000000D02*
X182000000Y-42500000D01*
X180500000Y-39500000D02*
X177000000Y-36000000D01*
X171000000Y-36000000D02*
X169000000Y-38000000D01*
X177000000Y-36000000D02*
X171000000Y-36000000D01*
X181500000Y-39500000D02*
X180500000Y-39500000D01*
%TO.N,Net-(C8-Pad1)*%
X164880000Y-48400000D02*
X164800000Y-48320000D01*
X167334999Y-48400000D02*
X164880000Y-48400000D01*
X164800000Y-43200000D02*
X165000000Y-43000000D01*
X164800000Y-48320000D02*
X164800000Y-52000000D01*
X164000000Y-47520000D02*
X164800000Y-48320000D01*
X164000000Y-43000000D02*
X164000000Y-47520000D01*
%TO.N,Net-(C12-Pad2)*%
X169900000Y-50900000D02*
X169950000Y-50850000D01*
X167334999Y-50900000D02*
X169900000Y-50900000D01*
X168824999Y-49724999D02*
X169950000Y-50850000D01*
X168824999Y-43175001D02*
X168824999Y-49724999D01*
X169000000Y-43000000D02*
X168824999Y-43175001D01*
X183000000Y-52374999D02*
X183000000Y-52200000D01*
X186425001Y-55800000D02*
X183000000Y-52374999D01*
X179400000Y-52200000D02*
X178050000Y-50850000D01*
X183000000Y-52200000D02*
X179400000Y-52200000D01*
X192400000Y-54200000D02*
X190800000Y-55800000D01*
X194320000Y-54200000D02*
X192400000Y-54200000D01*
X190800000Y-55800000D02*
X186425001Y-55800000D01*
X178050000Y-50850000D02*
X169950000Y-50850000D01*
X196000000Y-55880000D02*
X194320000Y-54200000D01*
%TO.N,Net-(C10-Pad1)*%
X193400000Y-50800000D02*
X196000000Y-50800000D01*
X196000000Y-48000000D02*
X196000000Y-50800000D01*
%TO.N,Net-(C10-Pad2)*%
X198500000Y-46500000D02*
X195000000Y-43000000D01*
X198500000Y-48000000D02*
X198500000Y-46500000D01*
%TO.N,Net-(C11-Pad1)*%
X181500000Y-44500000D02*
X178500000Y-44500000D01*
X181500000Y-47920000D02*
X181420000Y-48000000D01*
X181500000Y-44500000D02*
X181500000Y-47920000D01*
X174000000Y-38000000D02*
X174000000Y-40000000D01*
X174000000Y-40000000D02*
X178500000Y-44500000D01*
%TO.N,Net-(C12-Pad1)*%
X172370000Y-48350000D02*
X169950000Y-48350000D01*
X174000000Y-46720000D02*
X172370000Y-48350000D01*
X174000000Y-43000000D02*
X174000000Y-46720000D01*
%TO.N,Net-(C15-Pad1)*%
X215000000Y-60580000D02*
X217080000Y-58500000D01*
X215000000Y-62000000D02*
X215000000Y-60580000D01*
%TO.N,Net-(C15-Pad2)*%
X219200000Y-74200000D02*
X212200000Y-74200000D01*
X219700000Y-73700000D02*
X219200000Y-74200000D01*
X219700000Y-71800000D02*
X219700000Y-73700000D01*
%TO.N,Net-(C16-Pad2)*%
X193400000Y-55880000D02*
X194425001Y-56905001D01*
X194425001Y-56905001D02*
X197463629Y-56905001D01*
X200868630Y-53500000D02*
X202000000Y-53500000D01*
X197463629Y-56905001D02*
X200868630Y-53500000D01*
%TO.N,Net-(C16-Pad1)*%
X202000000Y-56000000D02*
X202000000Y-70815661D01*
X202000000Y-70815661D02*
X203959329Y-72774990D01*
X181100000Y-75400000D02*
X182000000Y-74500000D01*
X179080000Y-75400000D02*
X181100000Y-75400000D01*
%TO.N,Net-(C17-Pad1)*%
X187000000Y-73500000D02*
X210300000Y-73500000D01*
X217820918Y-65979082D02*
X220498082Y-65979082D01*
X210300000Y-73500000D02*
X217820918Y-65979082D01*
X216000000Y-47800000D02*
X216000000Y-49460000D01*
X208000000Y-39800000D02*
X216000000Y-47800000D01*
X221200000Y-65200000D02*
X221238582Y-65238582D01*
X220498082Y-65979082D02*
X221238582Y-65238582D01*
X221200000Y-60800000D02*
X221200000Y-65200000D01*
X217080000Y-56680000D02*
X221200000Y-60800000D01*
X217080000Y-55500000D02*
X217080000Y-56680000D01*
%TO.N,Net-(C17-Pad2)*%
X186000000Y-38000000D02*
X183000000Y-41000000D01*
X190000000Y-38000000D02*
X186000000Y-38000000D01*
X206500000Y-35800000D02*
X208000000Y-37300000D01*
X192200000Y-35800000D02*
X206500000Y-35800000D01*
X190000000Y-38000000D02*
X192200000Y-35800000D01*
X183000000Y-41000000D02*
X183000000Y-42800000D01*
X186500000Y-46300000D02*
X186500000Y-46500000D01*
X183000000Y-42800000D02*
X186500000Y-46300000D01*
X186500000Y-46500000D02*
X186500000Y-48000000D01*
%TO.N,Net-(C18-Pad1)*%
X199000000Y-58400000D02*
X197600000Y-58400000D01*
X197600000Y-58400000D02*
X192400000Y-63600000D01*
X208000000Y-50260000D02*
X208800000Y-51060000D01*
X208000000Y-47000000D02*
X208000000Y-50260000D01*
%TO.N,Net-(C18-Pad2)*%
X202904999Y-41504999D02*
X191495001Y-41504999D01*
X191495001Y-41504999D02*
X190000000Y-43000000D01*
X205900000Y-44500000D02*
X202904999Y-41504999D01*
X208000000Y-44500000D02*
X205900000Y-44500000D01*
%TO.N,Net-(C21-Pad2)*%
X178500000Y-67585002D02*
X178500000Y-67000000D01*
X181914998Y-71000000D02*
X178500000Y-67585002D01*
X222420000Y-51500000D02*
X224600000Y-53680000D01*
X224600000Y-53680000D02*
X224600000Y-76000000D01*
X224600000Y-76000000D02*
X223600000Y-77000000D01*
X188314998Y-77000000D02*
X184200000Y-72885002D01*
X223600000Y-77000000D02*
X188314998Y-77000000D01*
X184200000Y-72885002D02*
X184200000Y-71000000D01*
X184200000Y-71000000D02*
X181914998Y-71000000D01*
X187000000Y-71000000D02*
X184200000Y-71000000D01*
X222420000Y-49000000D02*
X222420000Y-51500000D01*
%TO.N,Net-(C22-Pad2)*%
X222420000Y-54000000D02*
X222420000Y-56500000D01*
X222500000Y-56580000D02*
X222420000Y-56500000D01*
X222500000Y-59000000D02*
X222500000Y-56580000D01*
%TO.N,Net-(C23-Pad1)*%
X139580000Y-63000000D02*
X139580000Y-61580000D01*
X139580000Y-61580000D02*
X138600000Y-60600000D01*
X138600000Y-60600000D02*
X128837002Y-60600000D01*
X121018501Y-72018501D02*
X124000000Y-75000000D01*
X114437002Y-75000000D02*
X117418501Y-72018501D01*
X107000000Y-75000000D02*
X114437002Y-75000000D01*
X119781499Y-72018501D02*
X119781499Y-69655503D01*
X119781499Y-69655503D02*
X127718501Y-61718501D01*
X128837002Y-60600000D02*
X127718501Y-61718501D01*
X117418501Y-72018501D02*
X119781499Y-72018501D01*
X127718501Y-61718501D02*
X127562003Y-61874999D01*
X119781499Y-72018501D02*
X121018501Y-72018501D01*
%TO.N,Net-(C23-Pad2)*%
X102575001Y-73575001D02*
X104000000Y-75000000D01*
X103000000Y-59500000D02*
X102874999Y-59625001D01*
X121500000Y-75000000D02*
X118700000Y-77800000D01*
X106800000Y-77800000D02*
X104000000Y-75000000D01*
X118700000Y-77800000D02*
X106800000Y-77800000D01*
X102575001Y-59924999D02*
X102575001Y-73575001D01*
X103000000Y-59500000D02*
X102575001Y-59924999D01*
%TO.N,Net-(C24-Pad2)*%
X104000000Y-43500000D02*
X104000000Y-38500000D01*
X101873000Y-45627000D02*
X101873000Y-59500000D01*
X104000000Y-43500000D02*
X101873000Y-45627000D01*
%TO.N,Net-(C24-Pad1)*%
X106500000Y-38500000D02*
X106500000Y-40500000D01*
X106500000Y-40500000D02*
X107000000Y-41000000D01*
X107000000Y-41000000D02*
X107000000Y-43500000D01*
X140894999Y-56605001D02*
X142120000Y-55380000D01*
X108700000Y-43500000D02*
X110600000Y-41600000D01*
X127542003Y-56605001D02*
X140894999Y-56605001D01*
X112537002Y-41600000D02*
X127542003Y-56605001D01*
X110600000Y-41600000D02*
X112537002Y-41600000D01*
X107000000Y-43500000D02*
X108700000Y-43500000D01*
%TO.N,Net-(C25-Pad1)*%
X116000000Y-70000000D02*
X112500000Y-73500000D01*
X117920000Y-70000000D02*
X116000000Y-70000000D01*
%TO.N,Net-(C26-Pad1)*%
X114920000Y-45500000D02*
X117920000Y-48500000D01*
X112900000Y-45500000D02*
X112000000Y-44600000D01*
X114920000Y-45500000D02*
X112900000Y-45500000D01*
%TO.N,Net-(C27-Pad2)*%
X130040000Y-70000000D02*
X137040000Y-63000000D01*
X123000000Y-70000000D02*
X130040000Y-70000000D01*
X131030000Y-70000000D02*
X132150000Y-71120000D01*
X130040000Y-70000000D02*
X131030000Y-70000000D01*
X134590000Y-71120000D02*
X134600000Y-71110000D01*
X132150000Y-71120000D02*
X134590000Y-71120000D01*
X137010000Y-68700000D02*
X137650000Y-68700000D01*
X134600000Y-71110000D02*
X137010000Y-68700000D01*
%TO.N,Net-(C27-Pad1)*%
X134610000Y-76200000D02*
X134600000Y-76190000D01*
X137650000Y-76200000D02*
X134610000Y-76200000D01*
X137650000Y-76200000D02*
X139920000Y-76200000D01*
X135600000Y-75190000D02*
X134600000Y-76190000D01*
X135600000Y-73250000D02*
X135600000Y-75190000D01*
X137650000Y-71200000D02*
X135600000Y-73250000D01*
%TO.N,Net-(C28-Pad1)*%
X154700000Y-43400000D02*
X154675001Y-43424999D01*
X157350000Y-43400000D02*
X154700000Y-43400000D01*
X151905001Y-43424999D02*
X151850000Y-43480000D01*
X154675001Y-43424999D02*
X151905001Y-43424999D01*
X151850000Y-43480000D02*
X151850000Y-45900000D01*
%TO.N,Net-(C28-Pad2)*%
X132700000Y-48500000D02*
X139580000Y-55380000D01*
X123000000Y-48500000D02*
X132700000Y-48500000D01*
X149350000Y-40900000D02*
X151850000Y-38400000D01*
X149350000Y-45900000D02*
X149350000Y-40900000D01*
X145250000Y-50000000D02*
X144500000Y-50000000D01*
X149350000Y-45900000D02*
X145250000Y-50000000D01*
%TO.N,Net-(C29-Pad1)*%
X144700000Y-73700000D02*
X145000000Y-74000000D01*
X145000000Y-74000000D02*
X145000000Y-76200000D01*
X137650000Y-73700000D02*
X144700000Y-73700000D01*
X149359000Y-72841000D02*
X151000000Y-72841000D01*
X148500000Y-73700000D02*
X149359000Y-72841000D01*
X144700000Y-73700000D02*
X148500000Y-73700000D01*
%TO.N,Net-(C30-Pad1)*%
X157230002Y-40900000D02*
X157350000Y-40900000D01*
X154675001Y-38344999D02*
X157230002Y-40900000D01*
X153171002Y-36841000D02*
X147500000Y-36841000D01*
X154675001Y-38344999D02*
X153171002Y-36841000D01*
%TO.N,Net-(C31-Pad1)*%
X130500000Y-38500000D02*
X130000000Y-38000000D01*
X140000000Y-38500000D02*
X130500000Y-38500000D01*
%TO.N,Net-(C32-Pad1)*%
X132000000Y-45000000D02*
X130000000Y-43000000D01*
X141000000Y-45000000D02*
X132000000Y-45000000D01*
%TO.N,Net-(C32-Pad2)*%
X143500000Y-47500000D02*
X141000000Y-47500000D01*
X145500000Y-45500000D02*
X143500000Y-47500000D01*
X145500000Y-39398960D02*
X145500000Y-45500000D01*
X146898960Y-38000000D02*
X145500000Y-39398960D01*
X147500000Y-38000000D02*
X146898960Y-38000000D01*
%TO.N,Net-(J2-Pad1)*%
X238627000Y-53373000D02*
X237000000Y-53373000D01*
X238000000Y-46000000D02*
X239000000Y-47000000D01*
X230500000Y-46000000D02*
X238000000Y-46000000D01*
X239000000Y-53000000D02*
X238627000Y-53373000D01*
X239000000Y-47000000D02*
X239000000Y-53000000D01*
X227500000Y-49000000D02*
X230500000Y-46000000D01*
%TO.N,Net-(Q1-Pad1)*%
X159000000Y-54000000D02*
X160270000Y-55270000D01*
X160270000Y-55270000D02*
X168500000Y-55270000D01*
X158000000Y-54000000D02*
X159000000Y-54000000D01*
X176500000Y-52920000D02*
X176500000Y-54000000D01*
X175230000Y-55270000D02*
X168500000Y-55270000D01*
X176500000Y-54000000D02*
X175230000Y-55270000D01*
%TO.N,Net-(Q2-Pad1)*%
X159880000Y-70000000D02*
X163000000Y-70000000D01*
X158280000Y-68400000D02*
X159880000Y-70000000D01*
X168139998Y-70000000D02*
X163000000Y-70000000D01*
X169409998Y-68730000D02*
X168139998Y-70000000D01*
X171500000Y-68730000D02*
X169409998Y-68730000D01*
%TO.N,Net-(Q5-Pad1)*%
X220000000Y-56400000D02*
X220000000Y-53600000D01*
X218400000Y-52000000D02*
X216000000Y-52000000D01*
X220000000Y-53600000D02*
X218400000Y-52000000D01*
%TO.N,Net-(Q6-Pad1)*%
X222500000Y-60900000D02*
X222500000Y-62000000D01*
X218600000Y-57000000D02*
X222500000Y-60900000D01*
X218600000Y-54600000D02*
X218600000Y-57000000D01*
X209200000Y-54000000D02*
X218000000Y-54000000D01*
X218000000Y-54000000D02*
X218600000Y-54600000D01*
X208800000Y-53600000D02*
X209200000Y-54000000D01*
D28*
%TO.N,+15V*%
X147000000Y-57080000D02*
X146920000Y-57000000D01*
X147000000Y-61500000D02*
X147000000Y-57080000D01*
D27*
%TO.N,Net-(R38-Pad1)*%
X213165900Y-79049989D02*
X134049989Y-79049989D01*
X132150000Y-77150000D02*
X132150000Y-76200000D01*
X134049989Y-79049989D02*
X132150000Y-77150000D01*
%TO.N,Net-(RV3-Pad1)*%
X153873000Y-78000000D02*
X151000000Y-75127000D01*
X214895001Y-78495001D02*
X214400000Y-78000000D01*
X214400000Y-78000000D02*
X153873000Y-78000000D01*
X218504999Y-78495001D02*
X214895001Y-78495001D01*
%TO.N,Net-(J4-Pad2)*%
X234500000Y-50300000D02*
X233270000Y-50300000D01*
X235500000Y-49300000D02*
X234500000Y-50300000D01*
X236900000Y-49300000D02*
X235500000Y-49300000D01*
%TO.N,Net-(J4-Pad1)*%
X236900000Y-48173000D02*
X234627000Y-48173000D01*
X233770000Y-49030000D02*
X233270000Y-49030000D01*
X234627000Y-48173000D02*
X233770000Y-49030000D01*
%TO.N,Net-(R53-Pad1)*%
X229970000Y-49030000D02*
X232000000Y-49030000D01*
X227500000Y-51500000D02*
X229970000Y-49030000D01*
%TO.N,Net-(R54-Pad1)*%
X232000000Y-52000000D02*
X232000000Y-50300000D01*
X227500000Y-56500000D02*
X232000000Y-52000000D01*
%TD*%
M02*
