%TF.GenerationSoftware,KiCad,Pcbnew,(5.1.6-0-10_14)*%
%TF.CreationDate,2020-08-17T21:01:39+02:00*%
%TF.ProjectId,MIXER V2 PCB,4d495845-5220-4563-9220-5043422e6b69,rev?*%
%TF.SameCoordinates,Original*%
%TF.FileFunction,Soldermask,Bot*%
%TF.FilePolarity,Negative*%
%FSLAX46Y46*%
G04 Gerber Fmt 4.6, Leading zero omitted, Abs format (unit mm)*
G04 Created by KiCad (PCBNEW (5.1.6-0-10_14)) date 2020-08-17 21:01:39*
%MOMM*%
%LPD*%
G01*
G04 APERTURE LIST*
%ADD10R,1.100000X1.100000*%
%ADD11O,1.100000X1.100000*%
%ADD12C,0.950000*%
%ADD13O,0.950000X0.950000*%
%ADD14R,0.950000X0.950000*%
%ADD15O,1.500000X1.500000*%
%ADD16C,1.500000*%
%ADD17C,1.700000*%
%ADD18R,1.700000X1.700000*%
%ADD19R,1.600000X1.150000*%
%ADD20O,1.600000X1.150000*%
%ADD21C,2.440000*%
%ADD22O,1.700000X1.700000*%
%ADD23R,3.100000X1.600000*%
%ADD24O,3.100000X1.600000*%
G04 APERTURE END LIST*
D10*
%TO.C,SW3*%
X232000000Y-50300000D03*
D11*
X233270000Y-50300000D03*
X232000000Y-49030000D03*
X233270000Y-49030000D03*
X232000000Y-47760000D03*
X233270000Y-47760000D03*
%TD*%
D12*
%TO.C,J1*%
X101873000Y-59500000D03*
D13*
X103000000Y-59500000D03*
D14*
X104159000Y-59500000D03*
%TD*%
D13*
%TO.C,SW2*%
X147500000Y-36841000D03*
X147500000Y-38000000D03*
D14*
X147500000Y-39127000D03*
%TD*%
%TO.C,SW1*%
X151000000Y-75127000D03*
D13*
X151000000Y-74000000D03*
X151000000Y-72841000D03*
%TD*%
D14*
%TO.C,J2*%
X237000000Y-55659000D03*
D13*
X237000000Y-54500000D03*
D12*
X237000000Y-53373000D03*
%TD*%
%TO.C,J4*%
X236900000Y-48173000D03*
D13*
X236900000Y-49300000D03*
D14*
X236900000Y-50459000D03*
%TD*%
D15*
%TO.C,R43*%
X222420000Y-49000000D03*
D16*
X227500000Y-49000000D03*
%TD*%
D17*
%TO.C,C1*%
X143500000Y-52500000D03*
X141000000Y-52500000D03*
%TD*%
%TO.C,C2*%
X144000000Y-66000000D03*
X144000000Y-68500000D03*
%TD*%
%TO.C,C3*%
X181000000Y-57000000D03*
D18*
X181000000Y-54500000D03*
%TD*%
D17*
%TO.C,C4*%
X188200000Y-54500000D03*
D18*
X188200000Y-57000000D03*
%TD*%
D17*
%TO.C,C5*%
X185000000Y-63500000D03*
D18*
X182500000Y-63500000D03*
%TD*%
D17*
%TO.C,C6*%
X160500000Y-62000000D03*
D18*
X163000000Y-62000000D03*
%TD*%
D17*
%TO.C,C7*%
X181500000Y-37000000D03*
X181500000Y-39500000D03*
%TD*%
%TO.C,C8*%
X167334999Y-48400000D03*
X167334999Y-50900000D03*
%TD*%
%TO.C,C9*%
X189000000Y-50500000D03*
X189000000Y-48000000D03*
%TD*%
%TO.C,C10*%
X196000000Y-48000000D03*
X198500000Y-48000000D03*
%TD*%
%TO.C,C11*%
X181500000Y-42000000D03*
X181500000Y-44500000D03*
%TD*%
%TO.C,C12*%
X169950000Y-50850000D03*
X169950000Y-48350000D03*
%TD*%
D18*
%TO.C,C15*%
X217200000Y-71800000D03*
D17*
X219700000Y-71800000D03*
%TD*%
%TO.C,C16*%
X202000000Y-53500000D03*
D18*
X202000000Y-56000000D03*
%TD*%
%TO.C,C17*%
X208000000Y-39800000D03*
D17*
X208000000Y-37300000D03*
%TD*%
D18*
%TO.C,C18*%
X208000000Y-47000000D03*
D17*
X208000000Y-44500000D03*
%TD*%
D18*
%TO.C,C21*%
X187000000Y-73500000D03*
D17*
X187000000Y-71000000D03*
%TD*%
D18*
%TO.C,C22*%
X192400000Y-63600000D03*
D17*
X194900000Y-63600000D03*
%TD*%
D18*
%TO.C,C23*%
X124000000Y-75000000D03*
D17*
X121500000Y-75000000D03*
%TD*%
%TO.C,C24*%
X104000000Y-38500000D03*
D18*
X106500000Y-38500000D03*
%TD*%
%TO.C,C25*%
X112500000Y-73500000D03*
D17*
X112500000Y-71000000D03*
%TD*%
%TO.C,C26*%
X112000000Y-47100000D03*
D18*
X112000000Y-44600000D03*
%TD*%
D17*
%TO.C,C27*%
X137650000Y-68700000D03*
X137650000Y-71200000D03*
%TD*%
%TO.C,C28*%
X151850000Y-45900000D03*
X149350000Y-45900000D03*
%TD*%
%TO.C,C29*%
X137650000Y-73700000D03*
X137650000Y-76200000D03*
%TD*%
%TO.C,C30*%
X157350000Y-43400000D03*
X157350000Y-40900000D03*
%TD*%
%TO.C,C31*%
X142500000Y-38500000D03*
D18*
X140000000Y-38500000D03*
%TD*%
%TO.C,C32*%
X141000000Y-45000000D03*
D17*
X141000000Y-47500000D03*
%TD*%
D19*
%TO.C,Q1*%
X158000000Y-54000000D03*
D20*
X158000000Y-56540000D03*
X158000000Y-55270000D03*
%TD*%
%TO.C,Q2*%
X163000000Y-68730000D03*
X163000000Y-67460000D03*
D19*
X163000000Y-70000000D03*
%TD*%
D20*
%TO.C,Q3*%
X168500000Y-55270000D03*
X168500000Y-56540000D03*
D19*
X168500000Y-54000000D03*
%TD*%
%TO.C,Q4*%
X171500000Y-70000000D03*
D20*
X171500000Y-67460000D03*
X171500000Y-68730000D03*
%TD*%
D19*
%TO.C,Q5*%
X216000000Y-52000000D03*
D20*
X216000000Y-49460000D03*
X216000000Y-50730000D03*
%TD*%
%TO.C,Q6*%
X208800000Y-52330000D03*
X208800000Y-51060000D03*
D19*
X208800000Y-53600000D03*
%TD*%
D16*
%TO.C,R1*%
X152000000Y-57000000D03*
D15*
X146920000Y-57000000D03*
%TD*%
%TO.C,R2*%
X152080000Y-53000000D03*
D16*
X147000000Y-53000000D03*
%TD*%
%TO.C,R3*%
X162500000Y-57000000D03*
D15*
X162500000Y-51920000D03*
%TD*%
D16*
%TO.C,R4*%
X147000000Y-65500000D03*
D15*
X152080000Y-65500000D03*
%TD*%
D16*
%TO.C,R5*%
X166500000Y-63500000D03*
D15*
X166500000Y-68580000D03*
%TD*%
%TO.C,R6*%
X152080000Y-61500000D03*
D16*
X147000000Y-61500000D03*
%TD*%
D15*
%TO.C,R7*%
X176500000Y-52920000D03*
D16*
X176500000Y-58000000D03*
%TD*%
D15*
%TO.C,R8*%
X158280000Y-68400000D03*
D16*
X153200000Y-68400000D03*
%TD*%
%TO.C,R9*%
X174000000Y-53000000D03*
D15*
X174000000Y-58080000D03*
%TD*%
D16*
%TO.C,R10*%
X175500000Y-70000000D03*
D15*
X175500000Y-64920000D03*
%TD*%
%TO.C,R11*%
X184200000Y-41880000D03*
D16*
X184200000Y-36800000D03*
%TD*%
D15*
%TO.C,R12*%
X164800000Y-57080000D03*
D16*
X164800000Y-52000000D03*
%TD*%
D15*
%TO.C,R13*%
X181420000Y-50500000D03*
D16*
X186500000Y-50500000D03*
%TD*%
%TO.C,R14*%
X196000000Y-50800000D03*
D15*
X196000000Y-55880000D03*
%TD*%
D16*
%TO.C,R15*%
X204000000Y-59600000D03*
D15*
X204000000Y-64680000D03*
%TD*%
D16*
%TO.C,R16*%
X193400000Y-50800000D03*
D15*
X193400000Y-55880000D03*
%TD*%
D16*
%TO.C,R17*%
X186500000Y-48000000D03*
D15*
X181420000Y-48000000D03*
%TD*%
D16*
%TO.C,R18*%
X177450000Y-48350000D03*
D15*
X172370000Y-48350000D03*
%TD*%
%TO.C,R19*%
X217080000Y-58500000D03*
D16*
X212000000Y-58500000D03*
%TD*%
D15*
%TO.C,R20*%
X215000000Y-67080000D03*
D16*
X215000000Y-62000000D03*
%TD*%
%TO.C,R21*%
X174000000Y-75400000D03*
D15*
X179080000Y-75400000D03*
%TD*%
D16*
%TO.C,R22*%
X182000000Y-74500000D03*
D15*
X182000000Y-69420000D03*
%TD*%
%TO.C,R23*%
X217080000Y-55500000D03*
D16*
X212000000Y-55500000D03*
%TD*%
%TO.C,R24*%
X220000000Y-56400000D03*
D15*
X220000000Y-61480000D03*
%TD*%
%TO.C,R25*%
X179080000Y-72800000D03*
D16*
X174000000Y-72800000D03*
%TD*%
D15*
%TO.C,R26*%
X227580000Y-62000000D03*
D16*
X222500000Y-62000000D03*
%TD*%
D15*
%TO.C,R27*%
X178500000Y-61920000D03*
D16*
X178500000Y-67000000D03*
%TD*%
D15*
%TO.C,R28*%
X227580000Y-59000000D03*
D16*
X222500000Y-59000000D03*
%TD*%
D15*
%TO.C,R31*%
X104000000Y-69920000D03*
D16*
X104000000Y-75000000D03*
%TD*%
D15*
%TO.C,R32*%
X104000000Y-48580000D03*
D16*
X104000000Y-43500000D03*
%TD*%
%TO.C,R33*%
X107000000Y-75000000D03*
D15*
X107000000Y-69920000D03*
%TD*%
D16*
%TO.C,R34*%
X107000000Y-43500000D03*
D15*
X107000000Y-48580000D03*
%TD*%
%TO.C,R35*%
X117920000Y-70000000D03*
D16*
X123000000Y-70000000D03*
%TD*%
D15*
%TO.C,R36*%
X117920000Y-48500000D03*
D16*
X123000000Y-48500000D03*
%TD*%
%TO.C,R37*%
X134600000Y-76190000D03*
D15*
X134600000Y-71110000D03*
%TD*%
D16*
%TO.C,R38*%
X132150000Y-76200000D03*
D15*
X132150000Y-71120000D03*
%TD*%
D16*
%TO.C,R39*%
X151850000Y-38400000D03*
D15*
X151850000Y-43480000D03*
%TD*%
D16*
%TO.C,R40*%
X144500000Y-50000000D03*
D15*
X149580000Y-50000000D03*
%TD*%
%TO.C,R41*%
X139920000Y-76200000D03*
D16*
X145000000Y-76200000D03*
%TD*%
D15*
%TO.C,R42*%
X154675001Y-38344999D03*
D16*
X154675001Y-43424999D03*
%TD*%
%TO.C,R44*%
X227500000Y-54000000D03*
D15*
X222420000Y-54000000D03*
%TD*%
D21*
%TO.C,RV1*%
X174000000Y-43000000D03*
X169000000Y-43000000D03*
X164000000Y-43000000D03*
X174000000Y-38000000D03*
X169000000Y-38000000D03*
X164000000Y-38000000D03*
%TD*%
%TO.C,RV2*%
X190000000Y-38000000D03*
X195000000Y-38000000D03*
X200000000Y-38000000D03*
X190000000Y-43000000D03*
X195000000Y-43000000D03*
X200000000Y-43000000D03*
%TD*%
%TO.C,RV3*%
X226000000Y-42800000D03*
X221000000Y-42800000D03*
X216000000Y-42800000D03*
X226000000Y-37800000D03*
X221000000Y-37800000D03*
X216000000Y-37800000D03*
%TD*%
%TO.C,RV4*%
X120000000Y-38000000D03*
X125000000Y-38000000D03*
X130000000Y-38000000D03*
X120000000Y-43000000D03*
X125000000Y-43000000D03*
X130000000Y-43000000D03*
%TD*%
D18*
%TO.C,U1*%
X134500000Y-63000000D03*
D22*
X142120000Y-55380000D03*
X137040000Y-63000000D03*
X139580000Y-55380000D03*
X139580000Y-63000000D03*
X137040000Y-55380000D03*
X142120000Y-63000000D03*
X134500000Y-55380000D03*
%TD*%
D23*
%TO.C,J3*%
X115000000Y-54000000D03*
X110000000Y-54000000D03*
D24*
X115000000Y-59000000D03*
X110000000Y-59000000D03*
X115000000Y-64000000D03*
X110000000Y-64000000D03*
%TD*%
D16*
%TO.C,R53*%
X227500000Y-51500000D03*
D15*
X222420000Y-51500000D03*
%TD*%
%TO.C,R54*%
X222420000Y-56500000D03*
D16*
X227500000Y-56500000D03*
%TD*%
M02*
