M48
; DRILL file {KiCad (5.1.6-0-10_14)} date Monday, August 17, 2020 at 09:02:56 PM
; FORMAT={-:-/ absolute / inch / decimal}
; #@! TF.CreationDate,2020-08-17T21:02:56+02:00
; #@! TF.GenerationSoftware,Kicad,Pcbnew,(5.1.6-0-10_14)
FMAT,2
INCH
T1C0.0157
T2C0.0197
T3C0.0236
T4C0.0276
T5C0.0295
T6C0.0315
T7C0.0453
T8C0.0512
%
G90
G05
T1
X7.8346Y-2.2992
X7.874Y-1.9882
X8.0299Y-2.8652
X8.3543Y-2.9213
X8.3924Y-3.1122
X8.6026Y-3.0904
T2
X5.9449Y-2.8678
X5.9449Y-2.9134
X5.9449Y-2.9578
X9.3307Y-2.1013
X9.3307Y-2.1457
X9.3307Y-2.1913
X9.3268Y-1.8966
X9.3268Y-1.9409
X9.3268Y-1.9866
X5.8071Y-1.4504
X5.8071Y-1.4961
X5.8071Y-1.5404
X4.0107Y-2.3425
X4.0551Y-2.3425
X4.1007Y-2.3425
T3
X5.8346Y-2.3425
X6.1417Y-2.3425
X8.3465Y-2.4213
X8.6654Y-2.5604
T4
X6.7862Y-1.9035
X6.9862Y-1.9035
X7.1425Y-1.8898
X7.3425Y-1.8898
X8.7567Y-2.0276
X8.9567Y-2.0276
X7.1654Y-2.7331
X7.1654Y-2.9331
X8.7567Y-2.126
X8.9567Y-2.126
X4.6425Y-2.7559
X4.8425Y-2.7559
X6.0315Y-2.6929
X6.2315Y-2.6929
X6.4882Y-2.0472
X6.4882Y-2.2472
X8.6614Y-2.2205
X8.6614Y-2.4205
X5.7874Y-2.0866
X5.9874Y-2.0866
X7.252Y-1.4488
X7.252Y-1.6488
X6.8504Y-2.9685
X7.0504Y-2.9685
X6.0896Y-1.5096
X6.0896Y-1.7096
X6.8504Y-2.8661
X7.0504Y-2.8661
X5.5087Y-3.0
X5.7087Y-3.0
X8.4646Y-2.4409
X8.4646Y-2.6409
X5.689Y-1.9685
X5.889Y-1.9685
X8.7567Y-1.9291
X8.9567Y-1.9291
X5.9783Y-1.5118
X5.9783Y-1.7118
X8.3465Y-2.185
X8.5465Y-2.185
X7.6142Y-2.0
X7.6142Y-2.2
X6.5551Y-2.5
X6.5551Y-2.7
X6.8504Y-2.0866
X6.8504Y-2.2866
X4.2126Y-2.7528
X4.2126Y-2.9528
X5.7874Y-2.5787
X5.9874Y-2.5787
X4.0945Y-1.7126
X4.0945Y-1.9126
X4.0945Y-2.7528
X4.0945Y-2.9528
X5.2028Y-2.8
X5.2028Y-3.0
X5.7843Y-2.2441
X5.9843Y-2.2441
X6.3976Y-2.0441
X6.3976Y-2.2441
X8.7598Y-2.3228
X8.9598Y-2.3228
X7.7165Y-2.0
X7.7165Y-2.2
X8.0315Y-2.3465
X8.0315Y-2.5465
X7.0276Y-2.4378
X7.0276Y-2.6378
X7.1425Y-1.9882
X7.3425Y-1.9882
X8.7598Y-2.4409
X8.9598Y-2.4409
X9.1339Y-1.8803
X9.1339Y-1.9303
X9.1339Y-1.9803
X9.1839Y-1.8803
X9.1839Y-1.9303
X9.1839Y-1.9803
X6.9094Y-2.5559
X6.9094Y-2.7559
X5.2992Y-2.7996
X5.2992Y-2.9996
X8.7567Y-2.2244
X8.9567Y-2.2244
X4.2126Y-1.7126
X4.2126Y-1.9126
X5.7874Y-2.4213
X5.9874Y-2.4213
X6.9488Y-2.0835
X6.9488Y-2.2835
X8.3465Y-2.3031
X8.5465Y-2.3031
X4.6425Y-1.9094
X4.8425Y-1.9094
T5
X6.752Y-2.6559
X6.752Y-2.7559
X6.2205Y-2.126
X6.2205Y-2.176
X6.6339Y-2.126
X6.6339Y-2.226
X6.4173Y-2.6559
X6.4173Y-2.7059
X6.752Y-2.7059
X6.2205Y-2.226
X8.2205Y-2.0102
X8.2205Y-2.0602
X8.2205Y-2.1102
X8.5039Y-1.9472
X8.5039Y-1.9972
X8.5039Y-2.0472
X6.6339Y-2.176
X6.4173Y-2.7559
T6
X8.5512Y-2.8268
X8.6496Y-2.8268
X5.5118Y-1.5157
X5.6102Y-1.5157
X4.7835Y-2.9528
X4.8819Y-2.9528
X5.8799Y-1.8071
X5.9783Y-1.8071
X5.5512Y-2.0669
X5.6496Y-2.0669
X6.6909Y-1.9035
X6.6909Y-2.002
X4.4094Y-1.7559
X4.4094Y-1.8543
X7.1457Y-1.6535
X7.1457Y-1.752
X8.189Y-1.752
X8.189Y-1.8504
X7.4094Y-2.1457
X7.4094Y-2.2441
X7.5748Y-2.5039
X7.6732Y-2.5039
X5.4193Y-2.9016
X5.4193Y-3.0
X5.6693Y-2.5984
X5.6693Y-2.6969
X7.7165Y-1.8898
X7.815Y-1.8898
X4.4291Y-2.7953
X4.4291Y-2.8937
X5.2953Y-2.1803
X5.2953Y-2.4803
X5.3953Y-2.1803
X5.3953Y-2.4803
X5.4953Y-2.1803
X5.4953Y-2.4803
X5.5953Y-2.1803
X5.5953Y-2.4803
X8.189Y-1.4685
X8.189Y-1.5669
X6.3189Y-2.4409
X6.4173Y-2.4409
X7.3622Y-2.7953
X7.3622Y-2.8937
X6.588Y-1.9055
X6.588Y-2.0039
X7.4409Y-1.8898
X7.4409Y-1.9882
X5.4193Y-2.7047
X5.4193Y-2.8031
X5.5512Y-1.7717
X5.5512Y-1.8701
X7.9528Y-2.1063
X7.9528Y-2.2047
X4.0945Y-1.5157
X4.1929Y-1.5157
X6.1949Y-1.6102
X6.1949Y-1.7087
X7.126Y-2.1457
X7.126Y-2.2441
X7.1457Y-1.4567
X7.1457Y-1.5551
X7.185Y-2.5
X7.2835Y-2.5
T7
X4.3307Y-2.126
X4.3307Y-2.3228
X4.3307Y-2.5197
X4.5276Y-2.126
X4.5276Y-2.3228
X4.5276Y-2.5197
T8
X8.5039Y-1.4882
X8.5039Y-1.685
X8.7008Y-1.4882
X8.7008Y-1.685
X8.8976Y-1.4882
X8.8976Y-1.685
X7.4803Y-1.4961
X7.4803Y-1.6929
X7.6772Y-1.4961
X7.6772Y-1.6929
X7.874Y-1.4961
X7.874Y-1.6929
X4.7244Y-1.4961
X4.7244Y-1.6929
X4.9213Y-1.4961
X4.9213Y-1.6929
X5.1181Y-1.4961
X5.1181Y-1.6929
X6.4567Y-1.4961
X6.4567Y-1.6929
X6.6535Y-1.4961
X6.6535Y-1.6929
X6.8504Y-1.4961
X6.8504Y-1.6929
T0
M30
